<?xml version="1.0" standalone="no"?>
<!DOCTYPE svg PUBLIC "-//W3C//DTD SVG 20010904//EN"
 "http://www.w3.org/TR/2001/REC-SVG-20010904/DTD/svg10.dtd">
<svg version="1.0" xmlns="http://www.w3.org/2000/svg"
 width="1536.000000pt" height="1536.000000pt" viewBox="0 0 1536.000000 1536.000000"
 preserveAspectRatio="xMidYMid meet">
<metadata>
Created by potrace 1.14, written by Peter Selinger 2001-2017
</metadata>
<g transform="translate(0.000000,1536.000000) scale(0.100000,-0.100000)"
fill="#000000" stroke="none">
<path d="M7620 13296 c14 -18 13 -19 -3 -13 -11 4 -16 3 -12 -3 3 -6 1 -10 -4
-10 -6 0 -11 4 -11 9 0 5 -7 11 -15 15 -13 4 -14 2 -5 -14 13 -24 7 -26 -14
-4 -21 21 -66 26 -59 7 4 -9 9 -10 17 -4 8 7 16 3 25 -12 11 -18 11 -20 0 -9
-7 6 -17 12 -22 12 -4 0 -5 -6 -1 -12 5 -9 2 -9 -9 1 -14 11 -17 11 -17 0 0
-11 -2 -11 -10 1 -5 8 -10 11 -10 5 0 -5 -8 -1 -17 10 -11 14 -14 15 -10 3 9
-25 -6 -31 -18 -7 -11 19 -13 19 -18 5 -4 -10 -3 -15 3 -11 6 3 10 3 10 -2 0
-4 -14 -16 -30 -25 -30 -17 -31 -17 -40 5 -7 19 -9 19 -9 3 -1 -15 -4 -16 -16
-6 -9 8 -15 8 -15 2 0 -6 6 -13 13 -16 8 -3 7 -8 -6 -16 -10 -6 -14 -16 -10
-23 5 -9 3 -9 -8 -1 -8 6 -23 10 -34 7 -11 -2 -26 -5 -33 -6 -7 -2 -18 -9 -25
-17 -9 -10 -9 -11 1 -6 6 4 12 3 12 -2 0 -6 -7 -13 -16 -16 -23 -9 -24 -8 -17
12 5 15 4 14 -9 -2 -9 -12 -20 -16 -28 -11 -10 6 -11 4 -4 -6 13 -22 13 -36
-1 -36 -7 0 -11 7 -8 16 4 13 3 13 -5 2 -6 -8 -15 -10 -23 -5 -10 6 -10 3 1
-11 14 -17 13 -18 -2 -12 -17 6 -23 -3 -19 -26 1 -5 -4 -7 -11 -4 -7 2 -12 13
-10 23 2 18 2 18 -8 1 -6 -9 -16 -14 -22 -11 -7 4 -8 2 -4 -5 4 -6 12 -9 17
-6 5 4 9 1 9 -4 0 -10 -28 -15 -67 -14 -7 1 -10 -3 -8 -8 3 -4 19 -6 35 -4 18
2 28 0 24 -6 -3 -5 -9 -7 -14 -4 -12 7 -41 -5 -35 -15 3 -5 0 -12 -6 -16 -8
-4 -9 -3 -5 4 4 7 2 12 -4 12 -6 0 -8 5 -4 13 5 8 2 7 -10 -2 -9 -8 -15 -20
-12 -26 3 -9 -6 -12 -29 -10 -19 1 -33 -1 -30 -4 2 -4 -6 -18 -17 -31 -15 -19
-18 -20 -14 -6 5 15 4 17 -7 8 -8 -7 -18 -8 -23 -4 -5 4 -1 -2 8 -13 16 -20
16 -21 -2 -21 -10 0 -16 5 -13 10 3 5 1 6 -5 2 -7 -4 -12 -14 -12 -22 0 -8 -5
-12 -10 -9 -6 4 -7 11 -4 17 4 7 2 8 -5 4 -6 -4 -9 -12 -5 -17 3 -5 0 -16 -6
-25 -10 -12 -16 -12 -28 -2 -13 11 -15 10 -10 -4 9 -22 0 -28 -28 -18 -19 8
-22 6 -17 -7 5 -12 3 -14 -7 -8 -10 6 -12 4 -7 -8 8 -22 -2 -22 -19 1 -12 15
-13 15 -8 0 4 -11 0 -16 -12 -15 -9 1 -18 -6 -20 -16 -3 -22 -14 -36 -14 -19
0 7 -4 12 -10 12 -5 0 -7 -6 -4 -14 3 -8 0 -17 -7 -22 -8 -4 -10 -3 -5 4 4 7
3 12 -2 12 -15 0 -22 -13 -14 -25 4 -6 0 -3 -10 7 -17 19 -33 25 -24 9 6 -9
-12 -28 -29 -31 -5 -1 -17 -6 -25 -12 -12 -8 -12 -8 3 -4 11 3 15 2 12 -4 -3
-6 -1 -10 6 -10 7 0 10 -2 7 -5 -3 -3 -18 -1 -33 5 -26 10 -27 9 -14 -6 13
-16 12 -16 -21 0 -25 12 -30 13 -17 2 15 -12 17 -18 7 -33 -10 -15 -11 -15 -6
-1 3 12 1 15 -9 12 -8 -3 -12 -11 -9 -19 3 -7 -5 -15 -18 -19 -19 -5 -20 -8
-8 -16 9 -6 10 -10 3 -10 -20 0 -24 18 -7 34 8 9 10 16 4 16 -6 0 -13 -7 -16
-15 -4 -8 -11 -12 -17 -8 -6 3 -7 1 -3 -5 8 -13 -28 -35 -39 -24 -5 4 -5 1 -1
-6 4 -7 12 -9 18 -6 7 4 8 2 4 -5 -4 -6 -12 -8 -18 -5 -8 5 -9 1 -4 -11 5 -15
4 -16 -8 -6 -8 7 -12 20 -10 29 5 14 4 14 -6 -1 -9 -14 -9 -22 1 -33 7 -8 8
-14 3 -13 -5 1 -11 0 -14 -1 -18 -7 -39 -7 -35 0 3 5 1 11 -4 14 -4 3 -8 -2
-8 -12 0 -34 -3 -43 -13 -37 -5 3 -7 13 -4 23 5 15 4 15 -6 -1 -6 -9 -16 -14
-22 -11 -7 4 -8 2 -4 -4 4 -7 1 -12 -8 -12 -9 0 -16 -5 -16 -11 0 -5 6 -7 13
-3 8 5 7 2 -2 -10 -11 -13 -16 -14 -22 -4 -7 10 -9 9 -9 -4 0 -10 -5 -18 -11
-18 -5 0 -7 -5 -3 -12 4 -7 3 -8 -5 -4 -8 6 -9 12 -2 20 8 9 7 13 -4 13 -8 0
-12 -3 -10 -7 2 -3 0 -12 -5 -20 -8 -13 -12 -12 -25 5 -14 19 -15 19 -6 -6 12
-32 5 -42 -19 -29 -13 7 -21 5 -30 -5 -7 -8 -17 -12 -24 -8 -6 4 -5 -1 2 -10
12 -14 11 -16 -8 -12 -12 2 -23 -2 -27 -10 -3 -8 -10 -12 -17 -8 -6 4 -6 0 2
-9 10 -13 10 -18 1 -24 -7 -4 -9 -3 -6 3 4 6 0 14 -9 17 -10 4 -14 1 -11 -6 4
-14 -21 -37 -41 -38 -7 0 -10 5 -6 12 4 7 3 8 -5 4 -9 -6 -9 -11 -1 -21 8 -10
8 -15 -1 -21 -8 -4 -9 -3 -5 4 4 7 1 12 -9 12 -9 0 -13 -4 -10 -10 4 -6 -1 -7
-11 -3 -14 5 -16 3 -11 -12 6 -15 5 -16 -8 -5 -14 12 -19 7 -16 -13 1 -5 -8
-11 -19 -14 -11 -3 -20 -12 -20 -20 0 -8 -5 -11 -10 -8 -6 4 -7 11 -4 17 4 6
0 6 -13 -1 -11 -6 -24 -7 -28 -3 -3 4 -5 0 -3 -8 1 -8 -4 -14 -12 -15 -18 0
-21 -24 -6 -45 9 -13 8 -13 -5 -3 -9 7 -19 10 -23 6 -4 -4 -4 1 0 11 5 14 4
17 -4 12 -7 -4 -12 -16 -12 -26 0 -10 -5 -22 -11 -25 -6 -4 -10 -1 -8 6 1 8 1
21 0 29 -1 12 -4 12 -12 -3 -5 -9 -7 -22 -3 -29 5 -7 -1 -9 -20 -6 l-27 5 23
-25 23 -25 -30 19 c-29 18 -30 18 -15 0 14 -18 14 -19 -7 -8 -27 15 -33 15
-33 1 0 -5 4 -8 9 -4 5 3 12 1 15 -3 3 -5 -7 -8 -22 -7 -36 2 -50 -10 -46 -40
1 -14 -2 -23 -7 -19 -5 3 -6 10 -3 16 5 8 1 9 -10 5 -10 -4 -20 -7 -22 -7 -3
0 -2 -4 1 -10 3 -5 1 -10 -5 -10 -6 0 -8 -5 -4 -11 5 -8 1 -8 -14 0 -14 7 -23
8 -27 1 -4 -6 -11 -8 -16 -5 -5 4 -9 1 -9 -4 0 -14 13 -14 27 0 8 8 13 7 18
-2 5 -8 4 -10 -4 -5 -6 4 -14 0 -17 -8 -5 -13 -10 -13 -27 -4 -19 10 -20 9 -9
-4 10 -13 10 -18 1 -24 -7 -4 -9 -3 -5 4 4 6 -1 10 -13 9 -13 -1 -17 -5 -11
-12 6 -7 2 -11 -10 -12 -13 -1 -17 3 -13 15 4 14 3 14 -5 3 -6 -8 -8 -20 -5
-27 2 -6 -1 -15 -6 -19 -6 -3 -8 -11 -5 -17 4 -5 -6 -2 -22 8 -21 14 -26 14
-17 3 10 -12 9 -15 -5 -16 -38 -3 -57 -11 -57 -23 0 -7 -9 -16 -20 -21 -14 -5
-15 -8 -5 -9 10 -1 9 -4 -5 -10 -27 -12 -37 -12 -30 -1 3 5 1 12 -4 15 -10 7
-9 -13 2 -31 4 -6 2 -15 -4 -19 -8 -4 -9 -3 -5 4 4 7 2 12 -3 12 -6 0 -11 -5
-11 -11 0 -6 -7 -8 -16 -5 -11 4 -15 2 -11 -8 3 -8 -1 -20 -9 -26 -9 -8 -14
-9 -14 -2 0 6 5 12 12 14 8 3 9 6 1 11 -6 4 -16 -6 -23 -23 -10 -24 -17 -29
-33 -24 -12 4 -17 2 -13 -4 3 -5 -1 -13 -10 -16 -22 -8 -26 -8 -19 3 3 5 1 12
-4 15 -10 7 -9 -13 1 -30 9 -13 -22 -15 -39 -2 -13 10 -13 -8 0 -29 6 -9 3
-11 -9 -6 -12 4 -15 3 -10 -5 5 -8 2 -10 -9 -6 -9 4 -15 3 -14 -2 3 -20 -2
-23 -27 -13 -25 9 -26 8 -13 -8 12 -15 12 -16 -5 -10 -17 7 -17 6 -5 -9 13
-16 12 -16 -7 -6 -18 9 -24 8 -35 -6 -13 -16 -12 -16 6 -2 19 14 19 14 6 -2
-7 -10 -20 -18 -27 -18 -8 0 -11 7 -8 18 5 14 4 14 -4 2 -7 -9 -8 -18 -1 -26
7 -8 6 -15 -2 -20 -8 -4 -9 -3 -5 4 4 7 1 12 -8 12 -8 0 -18 -5 -22 -12 -5 -7
-2 -9 7 -4 8 4 6 1 -3 -7 -10 -8 -14 -18 -10 -22 4 -5 1 -5 -5 -1 -8 5 -13 1
-14 -11 0 -10 -3 -13 -5 -6 -3 7 0 22 6 35 11 22 10 22 -9 -2 -11 -14 -21 -21
-21 -16 0 17 -40 -27 -40 -44 0 -10 -7 -21 -16 -24 -14 -5 -15 -4 -4 9 7 9 10
18 6 22 -3 3 -6 1 -6 -6 0 -8 -6 -11 -16 -7 -8 3 -12 2 -9 -4 3 -6 1 -10 -4
-10 -6 0 -11 -8 -11 -17 0 -15 -2 -16 -10 -3 -8 13 -10 13 -10 -2 0 -12 -6
-15 -22 -11 -16 3 -19 2 -10 -5 10 -7 10 -11 -2 -21 -12 -10 -17 -9 -26 6 -10
16 -11 16 -7 -4 3 -13 1 -26 -4 -29 -5 -3 -9 3 -9 13 0 15 -2 15 -9 3 -6 -8
-8 -17 -6 -20 2 -4 -2 -7 -10 -7 -8 0 -12 4 -9 8 2 4 0 10 -5 13 -5 4 -8 -5
-6 -19 2 -25 2 -25 -19 -8 -11 10 -18 14 -14 9 4 -5 3 -15 -3 -23 -9 -10 -15
-11 -28 -1 -13 10 -14 10 -3 -2 14 -17 16 -54 2 -45 -6 4 -8 10 -5 15 3 5 1
11 -4 14 -4 3 -8 -4 -7 -16 0 -12 -5 -23 -12 -25 -8 -3 -10 1 -5 13 4 12 3 15
-5 10 -7 -4 -12 -16 -12 -26 0 -14 -5 -18 -17 -13 -12 5 -14 3 -8 -7 5 -9 4
-11 -3 -6 -7 4 -12 2 -12 -3 0 -6 -5 -11 -11 -11 -5 0 -7 5 -3 12 5 7 3 8 -5
4 -7 -5 -10 -15 -6 -24 5 -12 1 -12 -15 3 -12 11 -20 15 -18 10 2 -6 -1 -11
-5 -12 -11 -3 -37 -30 -37 -38 0 -3 13 3 29 14 26 19 30 19 35 5 4 -9 4 -19 1
-22 -3 -3 -5 0 -5 6 0 17 -14 15 -40 -8 -17 -15 -26 -17 -36 -9 -11 9 -15 7
-20 -5 -3 -9 -10 -14 -14 -11 -11 7 -33 -22 -26 -34 10 -15 -25 -6 -35 10 -8
12 -10 12 -8 -1 3 -29 -1 -41 -11 -35 -6 4 -7 11 -4 17 4 7 2 8 -5 4 -6 -4 -9
-12 -6 -17 4 -5 1 -10 -4 -10 -6 -1 -16 -2 -23 -3 -6 0 -13 -8 -15 -16 -3 -9
-1 -11 4 -5 13 16 46 18 41 3 -3 -9 -21 -13 -51 -12 -26 1 -47 -2 -47 -8 0 -5
4 -7 9 -3 6 3 9 -4 8 -14 -1 -18 -3 -19 -17 -6 -11 10 -20 11 -30 4 -12 -8
-12 -9 4 -7 10 2 21 -3 23 -10 3 -8 -1 -10 -13 -5 -13 5 -15 3 -9 -8 7 -11 6
-12 -6 -2 -12 10 -20 9 -37 -3 -23 -16 -47 -10 -36 8 5 7 2 8 -5 4 -9 -6 -8
-13 6 -29 18 -20 17 -20 -4 -15 -15 4 -20 2 -16 -8 3 -8 -2 -17 -11 -20 -9 -3
-13 -10 -10 -15 3 -5 -6 -5 -20 1 -20 7 -24 6 -19 -5 3 -9 -1 -15 -10 -15 -22
0 -32 -20 -16 -31 8 -5 10 -9 5 -9 -5 0 -18 7 -27 16 -17 15 -18 15 -15 -3 3
-11 0 -26 -5 -34 -5 -8 -9 -9 -9 -3 0 7 -11 14 -25 16 -21 4 -23 3 -13 -9 9
-12 7 -13 -16 -9 -15 3 -24 1 -21 -5 4 -5 1 -9 -5 -9 -7 0 -7 -7 1 -22 10 -20
10 -21 -2 -12 -17 14 -59 13 -60 -1 0 -5 5 -11 13 -13 9 -2 8 0 -2 7 -18 13
-1 15 18 2 23 -14 -16 -23 -41 -9 -20 10 -21 10 -8 -5 15 -19 9 -24 -44 -30
-17 -2 -30 -10 -31 -18 -2 -34 -5 -40 -13 -35 -5 3 -14 -1 -21 -9 -13 -16 -45
-21 -35 -6 3 5 0 13 -6 17 -8 4 -9 3 -5 -5 4 -6 0 -14 -8 -17 -9 -3 -16 -12
-16 -20 0 -9 -6 -11 -17 -7 -16 6 -16 5 -4 -10 7 -9 18 -14 24 -10 6 3 7 1 3
-6 -4 -6 -13 -8 -19 -4 -7 4 -25 8 -40 9 -25 2 -26 1 -10 -12 18 -13 17 -15
-9 -18 -7 -1 -12 -7 -11 -14 2 -7 -2 -12 -7 -12 -13 0 -13 17 0 25 13 8 3 25
-13 25 -7 0 -6 -4 3 -10 13 -8 11 -11 -7 -16 -13 -4 -23 -11 -23 -16 0 -5 4
-7 8 -4 5 3 9 -1 9 -9 0 -13 -3 -13 -17 0 -16 14 -19 14 -33 1 -8 -8 -16 -14
-18 -13 -3 1 2 -3 9 -9 10 -9 9 -13 -4 -18 -22 -9 -31 -7 -16 3 11 6 9 9 -6
13 -15 4 -18 1 -16 -18 1 -16 -2 -21 -13 -17 -12 5 -12 7 -1 14 8 5 9 9 2 9
-6 0 -17 -7 -24 -15 -7 -8 -16 -13 -20 -10 -4 3 -11 -2 -14 -11 -3 -8 -10 -13
-15 -9 -15 9 -24 -14 -11 -30 8 -10 8 -15 -1 -21 -8 -4 -9 -3 -5 4 4 7 3 12
-3 12 -5 0 -12 -6 -15 -12 -3 -7 -4 -2 -1 12 3 14 2 19 -1 12 -3 -6 -11 -9
-17 -5 -7 3 -9 3 -5 -2 4 -4 1 -14 -7 -21 -8 -8 -12 -22 -9 -32 5 -14 4 -14
-4 -2 -6 8 -8 18 -6 22 3 4 0 8 -5 8 -6 0 -11 -6 -11 -14 0 -8 -9 -12 -25 -11
-14 2 -23 -1 -19 -6 3 -5 10 -7 15 -4 5 4 9 2 9 -4 0 -5 -14 -8 -31 -6 -23 3
-29 0 -25 -11 3 -8 1 -14 -3 -14 -5 0 -12 6 -14 13 -4 7 -6 6 -6 -5 -1 -9 5
-19 12 -21 6 -3 -3 -4 -21 -2 -28 3 -32 2 -21 -11 6 -8 9 -17 5 -21 -3 -3 -6
-1 -6 5 0 7 -5 12 -11 12 -6 0 -9 -7 -6 -15 4 -8 2 -17 -4 -20 -5 -4 -9 -3 -8
2 1 4 1 15 0 23 -1 13 -3 13 -10 0 -6 -8 -7 -18 -4 -24 3 -5 1 -6 -6 -2 -6 4
-8 13 -5 19 5 9 3 9 -6 0 -11 -10 -11 -15 0 -28 11 -14 11 -16 -1 -13 -8 2
-17 8 -21 13 -7 10 -12 -15 -9 -42 1 -7 -3 -13 -10 -13 -6 0 -9 -7 -5 -15 3
-8 0 -14 -7 -12 -7 1 -11 -3 -10 -10 2 -6 -9 -21 -23 -32 -23 -18 -23 -20 -6
-25 14 -5 18 -15 16 -44 -1 -20 -3 -38 -4 -39 -1 -2 -3 -7 -4 -12 0 -5 -4 -12
-8 -16 -9 -9 -5 16 5 33 5 7 4 12 -2 12 -6 0 -11 5 -11 11 0 5 4 8 9 5 14 -9
6 23 -9 37 -12 10 -12 9 -2 -5 10 -12 10 -18 2 -23 -6 -4 -9 -13 -7 -19 3 -7
1 -19 -3 -26 -5 -8 -6 -19 -2 -25 4 -5 7 -14 8 -20 0 -5 2 -15 2 -22 1 -7 10
-10 20 -7 14 5 14 4 2 -4 -10 -8 -18 -8 -27 0 -8 6 -16 8 -20 4 -3 -3 -1 -6 5
-6 7 0 12 -7 12 -16 0 -8 -4 -13 -9 -10 -4 3 -8 -5 -7 -17 1 -12 -3 -25 -9
-29 -6 -5 -2 -8 8 -8 13 0 17 5 12 19 -3 11 1 24 12 32 9 8 14 9 10 2 -4 -6
-4 -13 0 -16 5 -2 3 -3 -3 -1 -6 1 -10 -12 -10 -32 1 -19 5 -34 11 -34 5 -1
-2 -8 -17 -16 -28 -15 -38 -27 -15 -19 6 3 18 -5 26 -17 10 -18 10 -20 0 -10
-17 16 -34 16 -20 -1 8 -10 7 -17 -1 -25 -6 -6 -8 -15 -4 -19 4 -4 11 -1 16 7
6 8 10 10 10 5 0 -6 -8 -18 -18 -26 -21 -18 -19 -79 2 -79 6 0 4 -5 -4 -10
-13 -9 -13 -11 0 -20 12 -8 10 -10 -10 -11 -17 -1 -19 -3 -7 -6 20 -5 22 -19
5 -29 -7 -5 -8 -3 -3 6 5 9 4 11 -4 6 -6 -4 -9 -11 -6 -16 3 -5 -2 -13 -11
-18 -11 -6 -13 -11 -5 -16 6 -4 11 -3 11 3 0 6 10 16 23 22 19 11 21 10 9 -3
-7 -9 -9 -18 -5 -20 4 -3 3 -4 -2 -3 -6 2 -19 -9 -29 -24 l-20 -26 22 19 c23
20 31 9 10 -12 -16 -16 4 -16 22 1 8 6 6 2 -4 -10 -10 -13 -22 -20 -27 -18 -4
3 -11 0 -15 -6 -4 -7 -3 -9 3 -6 6 4 15 -5 22 -19 13 -28 15 -45 3 -27 -6 10
-12 10 -28 -2 -13 -11 -14 -13 -3 -9 20 6 31 -17 17 -37 -8 -11 -9 -11 -5 2 3
9 -1 16 -8 16 -10 0 -11 -5 -5 -17 5 -10 6 -21 2 -25 -4 -5 -2 -5 4 -2 23 13
23 -23 1 -44 -12 -12 -16 -19 -9 -15 18 11 14 -5 -5 -20 -12 -9 -14 -13 -5
-14 7 0 11 -4 7 -9 -3 -5 -1 -12 4 -16 7 -4 7 -15 1 -31 -13 -33 -13 -37 2
-28 10 6 10 4 0 -8 -11 -14 -10 -18 4 -26 15 -8 15 -9 0 -15 -10 -4 -15 -3
-11 3 3 6 2 10 -3 10 -5 0 -12 -9 -15 -19 -4 -15 -1 -18 12 -14 9 4 13 3 9 -2
-4 -4 -2 -15 5 -24 10 -14 10 -14 -4 -3 -14 11 -17 9 -17 -13 0 -15 5 -22 12
-18 6 3 8 3 4 -2 -4 -4 -2 -15 5 -23 10 -13 9 -14 -10 -4 -27 15 -45 15 -20 1
9 -5 17 -15 17 -20 0 -6 -4 -8 -9 -4 -5 3 -13 0 -17 -6 -4 -7 -3 -9 3 -6 6 4
10 -4 10 -18 0 -14 -4 -28 -9 -31 -5 -3 -2 -14 7 -24 9 -10 14 -23 11 -29 -4
-5 -2 -12 4 -16 5 -3 10 -12 10 -18 0 -7 -4 -6 -11 3 -8 12 -9 10 -7 -10 2
-14 7 -28 12 -31 5 -4 -1 -10 -14 -14 -15 -5 -20 -13 -17 -26 3 -11 -1 -26
-10 -34 -9 -9 -10 -15 -3 -15 7 0 5 -6 -4 -16 -9 -8 -16 -18 -16 -22 0 -3 5
-1 12 6 22 22 29 12 8 -10 -33 -35 -42 -56 -28 -64 7 -4 8 -3 4 4 -5 8 -2 10
9 6 17 -7 15 -14 -7 -18 -27 -4 -34 -16 -32 -51 3 -31 1 -35 -11 -25 -21 17
-19 1 2 -23 10 -11 12 -17 6 -13 -7 4 -13 2 -13 -3 0 -6 -5 -11 -11 -11 -8 0
-8 5 1 15 7 8 9 15 5 15 -4 0 -14 -8 -21 -17 -9 -14 -10 -21 -1 -32 10 -12 9
-14 -5 -8 -10 3 -20 1 -24 -5 -4 -6 -3 -9 2 -6 5 3 18 2 29 -3 17 -6 17 -8 3
-8 -10 -1 -18 -6 -18 -12 0 -5 -4 -7 -10 -4 -6 4 -7 -1 -3 -11 5 -13 3 -15 -8
-9 -11 7 -11 5 1 -10 12 -15 12 -17 1 -10 -11 6 -13 4 -8 -9 5 -13 3 -17 -6
-13 -8 3 -19 2 -26 -3 -10 -5 -9 -9 4 -13 10 -5 14 -3 9 5 -5 7 -3 8 5 3 9 -5
10 -10 2 -18 -8 -8 -6 -17 6 -31 17 -20 17 -20 -2 -4 -18 16 -20 16 -42 -8
-13 -14 -20 -30 -16 -37 15 -24 11 -35 -13 -32 -14 1 -27 -2 -30 -7 -3 -4 -2
-8 3 -7 22 4 32 -3 30 -20 0 -11 -5 -17 -9 -15 -5 3 -6 10 -3 15 3 5 -1 6 -9
3 -9 -3 -13 -11 -9 -18 15 -22 11 -34 -11 -30 -11 2 -15 2 -8 -2 14 -6 17 -25
3 -22 -5 2 -8 -1 -7 -7 0 -5 8 -9 16 -8 11 1 10 -2 -4 -12 -10 -8 -15 -19 -11
-25 3 -6 3 -10 -2 -9 -19 3 -25 -2 -17 -14 5 -7 0 -4 -10 8 -12 12 -17 14 -14
5 22 -58 22 -57 5 -35 -8 11 -19 17 -23 12 -4 -4 -2 -7 4 -7 7 0 12 -5 12 -11
0 -6 -6 -9 -13 -6 -8 3 -14 -1 -14 -9 0 -7 4 -11 9 -8 4 3 5 -2 2 -11 -5 -11
-10 -13 -19 -5 -9 8 -12 4 -9 -16 1 -15 9 -31 16 -36 9 -7 7 -8 -7 -4 -28 8
-46 -6 -35 -24 7 -10 10 -11 10 -2 0 6 5 12 11 12 8 0 7 -5 -1 -15 -11 -14
-15 -14 -33 2 -19 18 -19 17 -7 -4 11 -18 12 -24 1 -37 -11 -13 -11 -19 0 -33
12 -14 12 -16 0 -8 -10 6 -13 4 -9 -6 4 -10 -1 -15 -14 -16 -19 -2 -19 -1 -3
17 12 13 13 20 4 26 -7 4 -10 3 -6 -3 4 -6 0 -16 -8 -23 -14 -12 -14 -15 0
-30 12 -14 13 -20 4 -26 -7 -4 -10 -3 -6 3 4 6 1 13 -7 16 -11 5 -13 0 -6 -24
5 -17 5 -31 -1 -35 -5 -3 -7 -10 -4 -15 4 -5 -4 -5 -19 1 -34 13 -33 5 2 -14
20 -12 22 -15 7 -13 -11 1 -27 6 -35 11 -8 4 -4 -3 10 -15 24 -22 25 -22 2
-16 -12 3 -20 1 -17 -3 3 -5 -3 -14 -12 -20 -13 -7 -14 -10 -3 -8 8 2 16 -2
17 -7 1 -6 -7 -9 -18 -9 -11 1 -17 -1 -14 -4 2 -3 0 -11 -6 -19 -9 -9 -8 -13
0 -13 6 0 11 5 11 10 0 6 5 10 11 10 8 0 7 -5 -1 -15 -7 -9 -10 -18 -6 -22 3
-4 -4 -17 -16 -30 -12 -13 -23 -31 -24 -41 -2 -9 -8 -18 -13 -20 -6 -2 -11 -8
-11 -13 0 -6 5 -7 12 -3 6 4 8 3 4 -4 -3 -5 -3 -12 1 -15 5 -2 2 -2 -4 -1 -7
2 -13 -1 -13 -6 0 -6 6 -10 13 -10 6 0 4 -5 -5 -11 -20 -11 -24 -29 -7 -29 5
0 7 5 4 10 -3 6 -1 10 5 10 7 0 10 -7 7 -15 -4 -8 -2 -17 4 -20 5 -4 7 -10 4
-15 -3 -5 0 -12 6 -15 6 -4 8 -18 5 -31 -4 -14 -2 -24 4 -24 6 0 8 4 5 10 -3
5 -2 10 3 10 5 0 9 -12 9 -26 0 -18 -4 -24 -14 -20 -8 4 -11 1 -8 -5 4 -6 13
-8 20 -5 8 3 16 -5 19 -18 3 -13 15 -27 28 -33 19 -8 20 -10 4 -16 -9 -4 -15
-3 -12 1 3 4 -3 13 -13 19 -14 9 -18 8 -18 -3 0 -7 4 -11 9 -8 4 3 8 0 8 -6 0
-6 11 -15 25 -20 14 -5 25 -15 25 -22 0 -9 -3 -8 -10 2 -5 8 -10 11 -10 7 0
-4 -10 -3 -22 3 -23 11 -23 11 -3 -5 11 -9 19 -21 17 -26 -1 -6 2 -8 8 -4 14
9 13 -8 -2 -24 -11 -11 -10 -12 1 -6 11 6 13 4 7 -11 -4 -10 -4 -15 0 -11 4 4
14 1 22 -6 12 -9 11 -6 -2 15 -11 17 -14 28 -6 33 6 3 10 3 9 -2 -4 -21 2 -34
13 -27 6 4 8 3 4 -4 -3 -6 2 -15 11 -21 10 -6 12 -11 6 -11 -7 0 -13 -5 -13
-11 0 -5 5 -7 12 -3 6 4 8 3 4 -4 -3 -6 -2 -13 4 -17 5 -3 10 -12 10 -18 0 -7
-4 -6 -10 3 -7 12 -9 10 -8 -7 1 -13 7 -19 15 -16 9 4 11 0 6 -13 -4 -11 -3
-15 5 -10 6 3 14 1 18 -5 4 -8 3 -9 -4 -5 -20 12 -13 -9 7 -23 15 -11 17 -19
11 -37 -6 -16 -5 -26 5 -34 8 -7 13 -15 11 -19 -3 -4 5 -18 15 -31 19 -23 19
-23 9 -2 -6 12 -7 22 -2 22 18 0 21 -40 4 -50 -13 -7 -9 -8 16 -5 18 2 32 -1
32 -7 0 -5 -7 -8 -15 -5 -8 4 -17 1 -21 -5 -5 -7 -2 -8 6 -3 10 6 12 4 7 -8
-4 -11 -2 -14 9 -10 10 3 12 0 8 -10 -3 -8 0 -18 7 -23 8 -5 10 -3 4 7 -6 11
-5 11 5 2 10 -9 10 -15 -4 -28 -20 -20 -21 -32 -2 -16 11 9 15 8 20 -4 3 -9
10 -13 16 -10 6 4 7 11 4 17 -4 7 -2 8 5 4 9 -6 9 -11 0 -22 -9 -11 -8 -15 5
-20 14 -6 14 -9 -5 -25 -12 -11 -17 -20 -11 -20 27 -3 31 -4 39 -13 4 -5 3 -6
-3 -3 -7 4 -14 -2 -17 -13 -3 -11 -2 -19 2 -18 17 2 29 -3 34 -15 3 -8 -1 -14
-9 -14 -7 0 -10 5 -7 11 3 6 2 7 -3 3 -11 -10 -14 -58 -2 -51 4 3 8 -4 8 -15
0 -12 4 -21 8 -21 5 0 9 -7 9 -15 0 -11 -4 -12 -14 -3 -11 8 -12 7 -7 -6 6
-15 17 -20 37 -17 4 0 7 -4 7 -10 0 -6 -10 -8 -22 -5 -13 3 -17 3 -10 0 10 -5
10 -9 0 -22 -8 -9 -8 -13 -2 -9 7 4 15 0 18 -9 3 -9 11 -12 18 -8 10 5 10 4 1
-6 -10 -11 -15 -11 -30 0 -15 12 -16 12 -6 0 14 -15 18 -34 5 -26 -4 2 -8 -4
-8 -15 0 -19 1 -18 17 3 10 12 21 19 25 15 4 -4 2 -7 -5 -7 -7 0 -9 -5 -6 -10
4 -6 11 -7 17 -4 7 4 8 2 4 -5 -4 -6 -11 -9 -16 -6 -5 3 -11 1 -15 -5 -6 -9 7
-14 28 -11 4 0 7 -4 7 -10 0 -6 -7 -9 -15 -6 -17 7 -30 -9 -15 -18 8 -5 8 -11
0 -20 -7 -9 -6 -16 4 -24 11 -9 13 -6 11 19 -1 16 1 28 5 25 12 -7 5 -51 -10
-71 -9 -11 -10 -15 -2 -10 6 4 12 3 12 -3 0 -5 -6 -12 -12 -14 -8 -4 -7 -6 3
-6 9 -1 19 6 23 14 3 8 0 15 -6 15 -6 0 -9 3 -5 6 3 3 11 3 17 -1 8 -5 7 -13
-2 -28 -18 -29 -12 -58 10 -51 14 5 14 4 3 -4 -8 -6 -19 -9 -25 -8 -6 2 -8 1
-3 -1 4 -3 5 -9 1 -14 -3 -5 -1 -9 5 -9 5 0 13 4 16 10 3 6 11 10 18 10 6 0 2
-6 -8 -14 -18 -13 -18 -13 1 -24 18 -10 18 -11 -3 -9 -12 0 -19 6 -16 12 4 5
2 6 -2 2 -17 -15 -14 -36 3 -30 10 4 14 3 10 -2 -4 -4 -3 -17 3 -28 7 -13 7
-17 1 -13 -6 3 -13 2 -17 -4 -6 -9 8 -14 28 -11 5 1 6 -3 2 -9 -3 -6 -10 -8
-14 -6 -9 6 -7 -71 2 -81 4 -3 2 -12 -4 -19 -8 -9 -5 -11 10 -7 13 3 21 1 21
-6 0 -7 -5 -9 -12 -5 -8 5 -9 2 -5 -9 3 -10 2 -17 -3 -17 -6 0 -10 5 -10 12 0
6 -2 9 -5 6 -9 -8 6 -38 16 -32 5 3 9 0 9 -5 0 -6 -6 -11 -12 -11 -9 0 -8 -3
2 -9 8 -6 18 -7 22 -5 4 3 8 0 8 -5 0 -6 -5 -11 -11 -11 -8 0 -7 -5 1 -15 7
-9 10 -18 6 -22 -3 -3 -6 -1 -6 6 0 7 -4 10 -10 6 -5 -3 -7 -12 -4 -20 4 -8 9
-13 13 -11 4 3 7 -4 7 -14 0 -18 -1 -18 -20 -2 -19 17 -19 17 -1 -10 9 -15 22
-25 28 -21 6 4 7 1 3 -6 -5 -7 -15 -10 -23 -7 -8 3 -11 1 -8 -5 4 -5 2 -16 -4
-23 -14 -17 5 -35 32 -31 14 3 16 1 7 -10 -7 -8 -9 -19 -6 -24 4 -5 1 -13 -5
-17 -8 -4 -9 -3 -5 4 5 8 2 10 -8 6 -13 -5 -14 -8 -1 -20 8 -8 13 -20 11 -27
-1 -7 -1 -9 1 -4 8 12 20 8 20 -8 0 -8 -9 -17 -19 -21 -10 -3 -18 -10 -18 -16
0 -7 5 -6 14 2 11 8 20 9 33 1 13 -7 14 -10 4 -11 -8 0 -12 -3 -8 -6 3 -3 1
-18 -4 -32 -8 -21 -7 -23 4 -13 12 9 17 6 27 -18 10 -25 15 -28 34 -21 16 6
23 5 23 -5 0 -7 -6 -11 -14 -8 -7 3 -13 -1 -13 -8 0 -7 3 -9 6 -6 4 3 15 2 25
-4 15 -7 17 -6 13 6 -4 8 -2 15 3 15 13 0 12 -33 -1 -42 -6 -4 -7 -10 -4 -14
10 -9 39 22 30 32 -6 7 22 -13 48 -35 3 -2 -3 -1 -12 2 -10 3 -20 1 -24 -5 -4
-7 -3 -8 4 -4 7 4 12 3 12 -3 0 -6 7 -7 17 -4 12 5 14 3 8 -8 -8 -12 -6 -12 8
0 10 8 20 11 24 7 3 -3 2 -6 -4 -6 -5 0 -10 -7 -10 -15 0 -20 7 -19 24 3 13
16 14 16 9 -3 -6 -20 -2 -23 51 -27 8 -1 9 -7 2 -20 -10 -19 -4 -22 34 -19 9
1 17 -3 17 -8 0 -6 5 -11 11 -11 5 0 7 6 3 13 -5 8 -2 8 9 -2 9 -7 17 -23 17
-35 0 -17 2 -18 10 -6 7 11 10 11 10 2 0 -8 5 -10 13 -6 8 5 8 2 -2 -9 -8 -10
-9 -17 -3 -17 6 0 13 4 17 10 9 15 34 0 37 -23 2 -11 10 -22 18 -24 13 -4 13
-3 0 6 -13 9 -13 11 3 11 9 0 17 -7 17 -16 0 -8 4 -12 10 -9 6 3 10 1 10 -6 0
-8 5 -8 18 2 14 11 13 10 -2 -9 -20 -22 -13 -29 14 -13 21 14 33 2 18 -17 -10
-12 -10 -14 0 -8 15 9 52 -2 52 -16 0 -6 -6 -5 -15 2 -13 10 -18 11 -28 1 -9
-10 -8 -11 5 -6 12 5 20 1 24 -10 6 -13 9 -14 16 -3 8 10 11 10 15 0 2 -6 9
-10 14 -6 5 3 9 0 9 -5 0 -6 -5 -11 -12 -11 -6 0 -9 -2 -6 -5 8 -9 38 6 32 16
-3 5 2 6 11 3 14 -6 14 -9 -2 -28 -16 -19 -16 -19 0 -7 11 8 17 9 17 3 0 -7 8
-9 18 -5 15 6 16 5 2 -12 -14 -17 -14 -18 8 -6 26 14 45 5 22 -9 -8 -6 -10
-10 -5 -10 6 0 17 6 24 12 11 11 11 9 1 -12 -12 -23 -12 -24 4 -11 14 12 16
12 10 -4 -5 -12 -4 -16 4 -11 6 3 13 2 17 -3 3 -6 12 -8 21 -4 8 3 23 -2 33
-11 10 -9 21 -13 26 -9 4 5 5 2 1 -5 -6 -10 -11 -10 -22 -1 -10 8 -14 8 -14 0
0 -11 13 -15 39 -12 7 2 10 -2 7 -8 -4 -5 -1 -13 5 -17 8 -4 9 -3 5 4 -4 7 -2
12 3 12 6 0 11 -6 11 -12 0 -9 4 -8 10 2 8 13 10 12 11 -5 1 -11 1 -24 0 -28
-1 -5 3 -6 9 -2 6 3 7 11 4 17 -4 6 -2 8 4 4 5 -3 12 0 15 6 3 7 4 3 4 -9 -1
-13 -6 -23 -11 -23 -5 0 -7 -3 -4 -6 4 -3 16 -1 27 6 18 9 22 7 30 -13 8 -22
40 -55 48 -49 1 1 6 2 11 1 4 -1 16 -2 27 -3 13 0 19 -7 17 -18 -2 -13 2 -16
13 -12 16 7 58 -28 49 -40 -2 -3 -1 -4 2 -1 4 2 16 -1 28 -7 11 -7 25 -11 29
-10 4 1 10 -5 13 -13 5 -13 9 -13 22 -3 9 7 13 8 10 3 -4 -6 -3 -17 3 -25 7
-13 9 -12 9 2 0 9 4 19 10 23 5 3 8 -6 6 -23 -3 -21 0 -28 14 -28 10 0 16 5
13 10 -3 5 -1 6 5 2 7 -4 12 -13 12 -20 0 -8 14 -19 30 -26 26 -11 28 -15 18
-29 -10 -13 -10 -14 2 -3 16 14 34 16 25 3 -3 -6 6 -8 20 -5 17 3 25 0 25 -10
0 -21 36 -40 46 -24 5 7 3 8 -6 3 -9 -5 -11 -4 -6 4 10 16 26 4 19 -15 -5 -14
-3 -15 18 -4 21 12 23 12 11 -2 -10 -13 -10 -18 -1 -24 8 -4 9 -3 5 4 -4 7 -2
12 3 12 6 0 11 -6 11 -14 0 -17 35 -30 51 -20 8 5 9 3 4 -6 -6 -10 -4 -12 8
-7 8 3 21 -1 27 -8 7 -8 17 -12 24 -8 6 4 5 -1 -3 -10 -8 -10 -11 -20 -7 -24
3 -3 6 -2 6 4 0 5 7 10 15 10 18 0 20 -13 3 -21 -7 -3 -2 -3 11 0 17 5 21 3
16 -6 -6 -9 -4 -11 6 -4 22 14 44 15 30 1 -17 -17 -13 -31 4 -17 13 11 14 10
9 -5 -6 -15 -5 -16 17 -5 23 13 23 12 9 -5 -14 -17 -13 -18 8 -13 20 6 22 4
10 -10 -10 -12 -10 -14 0 -8 7 4 12 2 12 -6 1 -9 5 -7 14 5 12 16 14 16 20 2
3 -9 2 -13 -4 -10 -6 3 -10 1 -10 -4 0 -6 9 -11 20 -11 18 0 24 -10 21 -32 -1
-8 26 -4 35 5 4 4 12 7 18 7 6 0 4 -5 -4 -10 -11 -7 -11 -10 -2 -10 7 0 11 -4
8 -9 -3 -5 1 -12 10 -15 8 -3 12 -2 9 4 -3 6 1 7 10 4 10 -4 14 -13 10 -28 -4
-13 -3 -16 2 -9 8 12 52 15 51 3 -2 -18 3 -30 13 -30 5 0 7 5 3 12 -4 7 -3 8
4 4 6 -4 8 -14 5 -24 -6 -15 -5 -15 11 -3 9 8 16 10 15 5 -4 -21 2 -35 12 -28
6 3 22 -6 34 -20 13 -15 26 -27 29 -26 4 1 12 0 19 -3 9 -3 9 -7 0 -19 -11
-13 -9 -15 15 -13 32 1 52 -14 44 -35 -3 -9 2 -6 11 5 16 19 16 19 17 1 0 -15
3 -16 15 -6 13 11 14 10 10 -3 -4 -8 -1 -18 6 -23 7 -4 14 -3 17 4 2 7 10 5
22 -5 10 -9 16 -23 12 -32 -5 -14 -4 -14 11 -2 15 12 17 12 12 -2 -4 -8 -1
-18 4 -22 6 -3 8 -11 5 -17 -4 -7 -2 -8 5 -4 6 4 8 12 5 18 -5 8 -1 9 10 5 10
-4 20 -7 23 -7 3 0 0 -6 -6 -14 -9 -11 -6 -13 20 -10 26 3 29 1 20 -10 -9 -11
-9 -16 0 -22 8 -4 9 -3 5 4 -4 7 -2 12 3 12 6 0 11 -5 11 -11 0 -6 9 -8 23 -4
20 7 21 6 4 -6 -16 -13 -16 -15 5 -28 21 -13 22 -13 10 2 -12 14 -11 16 6 14
12 0 18 -6 15 -14 -3 -7 0 -13 6 -13 6 0 11 5 11 10 0 6 6 5 14 -2 8 -7 12
-17 9 -22 -3 -4 -9 -3 -13 4 -5 9 -9 9 -14 1 -6 -10 6 -15 27 -12 4 0 7 -3 7
-8 0 -5 7 -12 16 -15 8 -3 12 -2 9 4 -3 6 10 1 29 -11 20 -12 39 -26 43 -33 4
-6 -2 -4 -13 4 -12 9 -11 5 5 -13 14 -15 27 -25 29 -22 3 3 14 -2 24 -12 10
-9 18 -11 18 -5 0 6 -5 12 -12 14 -7 3 -4 7 7 12 11 4 16 4 12 0 -4 -4 2 -13
13 -21 11 -8 20 -21 20 -29 0 -8 4 -14 10 -14 5 0 7 8 4 18 -5 14 -4 15 5 2 6
-8 15 -16 21 -16 5 -1 16 -2 23 -3 8 -1 7 -4 -3 -11 -13 -8 -13 -11 -1 -22 8
-7 11 -8 8 -2 -4 7 -1 14 7 17 10 4 12 0 8 -16 -5 -19 -3 -20 10 -9 12 10 18
10 28 -2 14 -18 4 -39 -13 -30 -7 4 -8 3 -4 -1 10 -12 38 -15 31 -4 -3 5 0 9
6 9 6 0 8 5 4 12 -4 7 -3 8 4 4 6 -4 9 -13 5 -21 -4 -11 -1 -13 13 -8 17 6 18
5 4 -12 -8 -10 -10 -16 -3 -12 6 4 13 2 15 -5 2 -6 15 -13 29 -15 19 -2 21 -1
9 8 -13 9 -13 10 0 6 9 -2 14 -14 14 -27 -2 -23 -1 -24 13 -5 15 20 15 20 11
0 -4 -16 0 -21 15 -22 11 -1 23 -7 27 -14 4 -6 20 -11 35 -11 19 0 23 -3 14
-9 -10 -6 -11 -9 -1 -9 6 0 12 -6 12 -14 0 -8 5 -18 12 -22 7 -4 8 -3 4 4 -4
7 -1 12 9 12 9 0 13 -4 10 -10 -3 -5 0 -10 9 -10 8 0 17 -6 20 -12 5 -10 7
-10 12 -1 4 8 10 7 23 -5 15 -15 15 -18 1 -30 -8 -8 -10 -11 -4 -8 6 3 19 -3
28 -13 10 -10 25 -17 35 -14 9 2 24 -4 32 -14 13 -16 12 -17 -3 -5 -12 10 -18
10 -24 1 -4 -7 -3 -9 4 -5 6 3 14 2 17 -4 5 -8 12 -7 23 2 12 10 14 10 8 1 -5
-9 -1 -13 13 -13 11 0 22 -9 26 -20 3 -11 12 -20 18 -20 7 0 6 -4 -3 -11 -12
-8 -10 -9 7 -4 19 5 22 3 16 -12 -5 -15 -3 -16 8 -5 7 6 18 12 24 12 5 0 3 -5
-5 -10 -13 -8 -12 -10 3 -10 10 0 15 -4 12 -10 -4 -6 5 -10 19 -10 14 0 26 -4
26 -9 0 -5 -10 -7 -22 -5 -21 4 -21 4 -3 -4 11 -5 29 -6 41 -1 18 6 21 4 18
-17 -2 -19 1 -22 15 -15 11 6 23 4 36 -5 10 -8 14 -14 9 -14 -6 0 -15 5 -22
12 -9 9 -12 8 -12 -5 0 -9 3 -16 8 -16 42 7 101 -29 86 -53 -5 -7 -3 -8 6 -3
8 5 18 1 28 -11 13 -18 14 -18 8 6 -3 14 -3 19 0 12 3 -6 10 -10 15 -7 5 4 6
-1 3 -9 -7 -19 7 -21 25 -3 9 7 11 7 8 1 -4 -7 0 -15 9 -18 8 -3 12 -10 9 -16
-9 -14 8 -12 25 3 8 6 4 0 -9 -16 -14 -15 -19 -27 -13 -27 7 0 12 4 12 9 0 5
7 11 14 14 11 4 13 1 9 -10 -4 -9 -2 -14 3 -10 6 3 16 1 24 -4 12 -7 13 -11 2
-18 -11 -7 -10 -9 3 -14 9 -4 13 -3 10 3 -3 6 -1 10 5 10 6 0 8 6 5 12 -4 7 2
3 13 -9 11 -12 22 -19 25 -16 4 3 5 -4 2 -15 -2 -12 1 -25 7 -28 7 -4 8 -2 4
4 -4 7 -1 12 8 12 8 0 18 -5 21 -10 4 -6 11 -7 17 -4 7 4 8 2 4 -4 -8 -13 30
-36 44 -27 6 4 9 1 8 -6 -2 -7 3 -13 11 -14 18 0 27 -25 10 -25 -7 0 -10 -3
-7 -6 4 -3 16 -1 27 6 18 9 23 7 39 -19 14 -23 21 -28 30 -19 16 16 15 -4 0
-22 -11 -12 -10 -12 5 -1 12 10 17 10 17 2 0 -7 5 -9 13 -4 18 11 38 13 31 2
-3 -5 -10 -6 -16 -3 -6 4 -8 3 -5 -3 3 -5 19 -9 36 -8 21 1 28 -2 24 -12 -4
-11 -8 -11 -22 -1 -14 11 -14 11 -4 -3 7 -9 11 -19 8 -23 -3 -3 0 -2 7 3 7 7
19 4 36 -10 20 -16 28 -17 40 -7 13 11 15 10 9 -4 -4 -13 -2 -15 11 -11 14 6
15 4 5 -8 -10 -13 -10 -16 2 -16 8 0 12 4 9 9 -10 15 9 8 23 -10 8 -9 11 -11
8 -4 -6 11 -3 12 12 3 11 -6 23 -7 27 -4 3 3 6 -2 6 -12 0 -14 -3 -15 -14 -6
-11 9 -16 9 -22 0 -4 -7 -3 -9 4 -5 5 3 12 0 15 -6 3 -10 7 -10 19 0 13 10 18
10 24 1 5 -8 3 -9 -7 -4 -12 7 -12 6 -1 -7 7 -9 22 -15 33 -13 20 4 44 -27 31
-40 -4 -3 0 -5 8 -3 8 2 14 -3 12 -10 -1 -8 2 -11 8 -7 8 5 6 13 -4 24 -9 10
-16 22 -16 27 0 4 7 -2 16 -14 8 -12 24 -22 35 -22 11 0 18 -4 15 -8 -2 -4 -1
-14 5 -22 5 -9 9 -10 9 -4 0 7 8 15 17 18 10 4 14 4 10 0 -4 -4 -2 -13 4 -21
9 -10 8 -17 -2 -31 -13 -15 -12 -16 4 -3 16 13 22 8 17 -14 -1 -5 4 -4 11 2
16 16 33 17 23 1 -5 -8 0 -9 14 -6 12 4 20 2 17 -2 -3 -5 1 -15 9 -23 8 -8 12
-18 8 -23 -4 -5 2 -1 14 9 18 14 21 15 22 2 6 -54 4 -51 26 -29 9 8 17 11 17
5 1 -6 2 -15 3 -21 0 -5 4 -10 9 -10 4 0 9 0 12 0 3 0 1 10 -5 23 -11 21 -11
21 5 2 8 -11 13 -25 11 -32 -3 -7 1 -10 9 -6 8 3 12 10 8 17 -5 8 -3 8 8 0 8
-5 24 -9 36 -8 12 0 20 -2 17 -7 -2 -4 -12 -6 -22 -3 -15 5 -15 4 1 -6 14 -9
22 -9 33 1 12 10 13 9 8 -6 -6 -15 -5 -16 17 -5 23 13 23 12 9 -5 -10 -12 -10
-16 -2 -11 7 4 21 2 30 -5 14 -11 15 -11 5 1 -17 19 -17 35 0 21 8 -6 24 -9
37 -6 12 2 28 1 34 -2 10 -6 24 -7 72 -4 9 1 12 6 8 14 -4 6 -4 9 1 5 4 -4 15
-2 24 5 14 10 14 10 3 -5 -12 -15 -11 -17 7 -15 11 0 17 5 15 9 -3 4 2 8 11 8
10 0 13 5 9 13 -4 6 -4 9 1 5 4 -4 17 -1 27 7 11 7 27 11 36 8 11 -5 13 -3 7
8 -7 12 -6 12 7 1 11 -9 18 -10 23 -2 3 6 10 8 14 5 5 -2 7 7 5 20 -1 14 2 23
7 19 5 -3 7 -9 4 -14 -3 -5 -1 -12 5 -15 6 -4 10 -3 9 2 -4 22 2 43 12 43 6 0
8 -8 5 -18 -4 -11 1 -8 15 8 11 14 17 19 13 11 -5 -10 -3 -12 6 -6 10 6 9 11
-4 21 -10 7 -13 15 -7 18 5 3 11 0 14 -6 3 -10 9 -8 24 5 22 19 38 23 27 5 -4
-7 -3 -8 5 -4 6 4 20 2 29 -5 15 -12 15 -11 -1 7 -17 20 -17 22 0 35 9 8 14 9
10 3 -4 -7 -1 -14 7 -17 11 -4 13 1 10 19 -2 13 0 24 6 24 6 0 8 -5 4 -11 -4
-7 -1 -10 7 -7 8 3 13 11 11 18 -2 9 5 8 23 -4 14 -9 24 -13 23 -9 -2 4 1 9 5
10 11 3 37 30 37 38 0 3 -13 -3 -29 -15 -21 -14 -32 -17 -37 -9 -4 8 -3 9 5 5
6 -4 14 0 17 8 3 9 10 14 14 11 5 -3 13 3 19 12 7 12 10 13 11 4 0 -11 3 -11
15 -1 8 7 12 16 9 21 -3 5 0 9 5 9 14 0 14 -13 -1 -28 -9 -9 -9 -12 0 -12 7 0
12 5 12 10 0 6 7 10 15 10 8 0 15 5 15 11 0 5 -5 7 -11 4 -6 -4 -5 2 2 14 10
14 15 17 21 8 4 -7 8 -8 8 -3 0 5 6 3 13 -3 16 -13 28 -5 21 14 -7 17 12 29
22 14 5 -8 3 -9 -6 -4 -9 5 -11 4 -6 -4 10 -16 26 -4 19 14 -7 19 2 19 20 0
13 -13 16 -13 21 1 3 8 2 13 -3 10 -5 -3 -11 0 -14 8 -6 15 9 16 31 2 11 -7
12 -4 3 13 -7 11 -8 21 -2 21 5 0 11 -7 15 -15 3 -8 11 -15 18 -15 8 0 9 3 3
8 -21 15 -13 28 16 26 16 -1 32 3 36 9 3 6 1 7 -5 3 -7 -4 -12 -3 -12 2 0 17
30 22 37 7 5 -13 7 -13 18 2 7 9 11 23 8 30 -3 9 0 11 10 7 10 -3 20 2 27 16
6 11 16 18 22 14 6 -4 19 4 29 17 l18 24 11 -25 10 -25 -3 28 c-5 29 7 45 19
26 5 -8 3 -9 -6 -4 -9 5 -11 4 -6 -4 10 -15 26 -4 26 17 0 15 2 15 10 2 9 -14
14 -7 11 13 -1 5 3 6 9 2 5 -3 10 -1 10 5 0 6 5 8 10 5 6 -3 10 1 10 10 0 9 5
13 10 10 6 -4 7 -11 4 -17 -4 -7 -2 -8 5 -4 7 5 9 17 5 29 -6 22 -6 22 11 2 9
-11 13 -14 9 -6 -5 11 -3 13 11 7 16 -6 16 -4 4 10 -13 16 -12 16 8 6 14 -8
24 -9 28 -2 4 6 10 8 14 6 4 -3 8 1 8 9 0 20 -14 19 -26 -2 -6 -10 -11 -13
-11 -7 0 14 43 50 63 52 9 1 24 3 33 4 9 1 19 10 22 20 2 10 11 18 19 18 8 0
11 -4 8 -10 -4 -6 1 -7 11 -3 15 5 15 7 0 15 -17 9 -13 28 5 28 6 0 7 -5 3
-12 -5 -7 -3 -8 5 -4 7 5 10 14 8 21 -4 8 4 12 21 11 28 -2 62 20 62 38 0 6
-7 2 -15 -8 -8 -11 -15 -16 -15 -10 0 16 15 31 33 32 47 5 47 5 34 20 -11 13
-9 14 13 2 23 -12 24 -12 11 4 -12 14 -12 16 4 10 14 -6 16 -4 10 7 -7 11 -6
12 7 2 8 -7 19 -9 23 -5 5 4 5 -2 1 -13 -5 -15 -4 -17 5 -8 12 12 3 37 -10 29
-4 -3 -8 1 -8 9 0 10 5 11 18 4 12 -6 20 -5 25 3 4 6 3 8 -3 5 -6 -4 -13 0
-16 8 -4 10 -1 12 10 8 9 -4 19 1 25 10 5 10 14 17 19 17 6 0 3 -7 -5 -16 -9
-8 -16 -20 -16 -27 0 -6 6 -3 13 8 8 10 19 15 24 12 6 -4 10 1 9 11 0 9 2 17
5 17 3 0 14 6 23 14 15 13 19 13 28 0 7 -10 8 -7 4 13 -3 15 -2 29 3 32 5 3 8
-2 7 -11 -2 -25 24 -23 57 4 16 13 34 20 39 17 7 -4 8 -2 4 5 -4 6 -13 8 -19
4 -8 -4 -7 -1 1 9 7 9 22 15 34 13 14 -3 18 0 14 11 -4 10 -2 13 7 7 14 -9 41
-14 34 -6 -12 11 44 51 63 46 12 -3 20 0 20 6 0 7 -4 10 -9 6 -5 -3 -13 0 -17
6 -4 7 -3 9 3 6 6 -4 16 0 23 8 9 11 17 12 30 5 29 -15 34 -12 13 7 -10 10
-13 14 -6 9 9 -6 13 -3 14 10 0 16 2 16 9 -3 5 -13 12 -23 14 -23 3 0 2 7 -1
17 -5 12 -3 14 7 8 8 -5 11 -3 8 5 -2 8 3 21 11 30 15 15 17 14 34 -3 17 -20
17 -20 18 -1 1 10 1 23 0 27 -1 4 7 3 18 -3 26 -13 28 -13 35 6 5 14 4 15 -9
4 -8 -7 -15 -8 -15 -2 0 14 28 23 36 11 4 -7 12 -5 23 5 10 9 20 13 24 10 3
-3 3 5 0 18 -5 23 -5 23 11 3 12 -14 14 -15 10 -4 -3 10 0 20 7 25 8 5 10 3 4
-6 -5 -9 -4 -11 4 -6 6 4 18 3 26 -4 10 -8 15 -8 21 1 4 7 3 9 -3 6 -6 -4 -19
3 -29 15 -11 12 -13 18 -5 13 8 -5 25 -9 37 -10 19 0 21 2 11 14 -9 12 -9 13
0 7 7 -4 21 -2 30 4 16 11 16 11 1 6 -10 -3 -19 -2 -22 2 -3 4 5 9 16 9 12 1
25 8 31 15 6 9 7 8 3 -5 -4 -12 -2 -17 6 -14 7 2 12 10 10 16 -2 10 27 16 52
12 5 -1 3 6 -5 15 -13 16 -12 16 8 6 29 -16 41 -15 19 1 -16 12 -16 14 -2 26
9 8 16 9 16 3 0 -6 -6 -13 -12 -15 -7 -3 1 -4 17 -2 31 2 36 8 21 22 -5 5 -6
2 -1 -6 6 -10 4 -12 -4 -7 -9 6 -8 13 5 27 13 14 20 16 30 8 8 -6 11 -16 7
-22 -3 -5 -1 -7 5 -4 5 4 8 17 5 30 -4 18 -3 19 6 7 9 -13 11 -12 11 3 0 10 5
15 10 12 6 -4 18 -1 27 7 9 7 19 13 22 13 3 0 5 5 3 13 -3 11 1 11 20 1 22
-12 22 -11 8 6 -14 17 -13 18 2 12 10 -3 20 -1 24 5 4 6 3 8 -3 5 -5 -3 -10 0
-10 7 0 8 7 12 15 8 9 -3 13 -1 9 5 -4 6 6 9 23 8 16 -1 27 2 24 7 -3 4 0 8 6
8 6 0 9 4 6 8 -2 4 11 7 30 7 25 -1 31 1 24 11 -8 8 -6 13 5 18 9 3 13 2 10
-4 -3 -6 -1 -10 6 -10 6 0 9 8 6 19 -3 14 0 17 14 14 11 -3 26 0 34 7 8 6 19
9 24 6 5 -4 13 -1 17 5 4 8 3 9 -4 5 -7 -4 -12 -3 -12 3 0 17 22 24 32 10 7
-10 8 -8 5 8 -6 25 8 40 19 22 5 -8 3 -9 -6 -4 -9 5 -11 4 -6 -4 11 -17 29 -2
23 19 -3 13 0 17 9 13 8 -3 11 -10 8 -17 -3 -6 3 -1 14 11 14 16 22 19 30 11
8 -8 9 -4 5 13 -5 23 -5 24 10 4 15 -19 15 -19 14 -1 -1 10 4 21 12 24 10 3
11 0 5 -9 -6 -11 -5 -12 8 -2 8 7 18 10 22 6 4 -4 4 0 1 8 -3 9 2 22 11 30 12
9 15 10 10 2 -4 -8 -1 -13 8 -13 9 0 15 6 14 13 -2 6 6 12 17 12 29 1 87 44
81 61 -3 8 0 11 9 7 8 -3 13 -8 10 -12 -2 -4 2 -8 10 -8 8 0 12 4 9 9 -3 4 -7
17 -9 29 -3 16 -1 18 9 10 7 -6 17 -7 21 -3 5 4 5 1 1 -6 -4 -7 -12 -9 -18 -6
-7 5 -8 2 -4 -5 6 -9 12 -8 26 4 13 12 19 13 22 4 3 -9 7 -7 11 5 4 10 3 15
-3 11 -6 -3 -10 1 -10 10 0 13 4 14 23 4 19 -11 20 -10 9 3 -10 13 -9 15 13
13 17 -2 29 3 36 17 7 13 17 18 30 15 10 -3 22 -1 25 4 3 5 10 7 15 3 5 -3 8
0 7 8 -2 7 5 13 14 13 9 0 20 4 25 9 4 5 3 6 -4 2 -7 -4 -13 -3 -13 2 0 17 13
22 28 9 13 -10 14 -9 4 9 -9 16 -8 21 3 21 8 0 12 -4 9 -8 -2 -4 0 -11 6 -14
6 -4 10 -3 9 2 -1 4 -1 17 0 27 1 20 1 20 17 0 8 -10 12 -13 8 -5 -5 11 -3 13
10 8 10 -4 15 -3 11 3 -5 9 6 14 26 12 3 -1 6 5 6 13 0 11 -5 10 -24 -2 -13
-9 -26 -13 -29 -10 -3 3 4 8 15 12 12 3 21 11 21 16 0 6 9 7 22 4 17 -6 20 -4
15 9 -4 10 -3 15 3 11 5 -3 17 3 26 13 9 11 26 18 40 16 15 -1 22 2 17 9 -4 7
0 8 11 4 11 -5 15 -3 10 5 -5 7 -2 9 9 5 8 -3 20 0 26 7 8 9 7 13 -4 13 -8 0
-11 -5 -8 -10 4 -6 1 -7 -6 -3 -7 5 -9 11 -6 15 6 6 10 7 36 10 5 0 7 6 3 12
-4 8 0 8 15 0 17 -10 22 -9 27 4 3 8 11 12 17 8 6 -3 7 -1 3 5 -4 6 -13 9 -21
6 -8 -4 -12 -11 -8 -17 4 -6 1 -7 -7 -2 -10 6 -9 11 5 21 16 12 23 11 44 -2
24 -16 24 -15 -4 16 l-30 32 37 -21 c26 -14 39 -17 44 -9 4 6 3 8 -3 5 -6 -4
-13 -1 -16 7 -8 20 4 28 21 13 13 -10 15 -9 8 7 -7 20 -7 20 16 0 l22 -19 -17
27 c-15 24 -15 26 1 23 9 -1 24 1 33 6 10 5 21 3 27 -3 11 -11 17 0 13 25 0 4
4 7 10 7 6 0 9 -7 5 -15 -3 -8 -1 -15 4 -15 6 0 10 4 10 8 0 5 7 9 15 9 8 0
15 -4 15 -9 0 -4 5 -8 11 -8 6 0 9 6 6 13 -3 8 1 14 9 14 7 0 11 -4 8 -8 -2
-4 0 -10 6 -14 5 -3 10 1 10 10 0 13 4 14 21 4 15 -8 19 -8 15 0 -4 6 -2 11 4
11 6 0 8 5 4 12 -4 7 -3 8 5 4 6 -4 9 -11 7 -15 -3 -4 1 -8 9 -8 8 0 12 4 9 9
-3 4 5 7 18 5 18 -1 23 3 22 19 0 16 4 20 19 16 15 -4 18 -1 13 9 -4 8 0 5 10
-6 16 -20 16 -20 11 1 -4 20 -1 22 33 20 26 -1 36 3 33 11 -3 7 -10 10 -17 6
-7 -3 -6 -1 1 7 15 16 46 23 37 9 -3 -5 -1 -9 4 -9 5 0 12 9 15 21 3 12 10 18
15 15 6 -3 13 1 16 10 5 13 9 14 20 5 12 -10 13 -9 9 7 -2 11 0 23 6 26 7 5 8
1 4 -10 -5 -14 -3 -15 14 -6 11 6 24 8 28 4 5 -4 5 -2 2 4 -4 7 2 23 12 35 17
20 22 22 33 10 11 -12 11 -13 -1 -6 -13 7 -31 -10 -31 -30 1 -5 5 -2 11 8 6 9
14 15 19 12 5 -3 11 -1 15 5 4 6 11 8 16 4 5 -3 9 -2 8 3 -5 29 2 36 20 19 13
-12 21 -14 26 -6 3 6 1 9 -6 8 -8 -2 -14 7 -15 20 -1 22 -1 22 19 5 19 -18 20
-17 8 4 -10 19 -9 22 4 17 8 -4 15 -11 15 -17 0 -6 3 -7 6 -4 4 4 1 14 -6 22
-7 9 -9 15 -4 14 24 -4 44 2 42 14 -2 7 5 11 16 9 10 -2 16 1 13 5 -3 5 6 10
21 11 37 3 48 17 31 38 -12 15 -12 17 0 9 8 -4 26 -9 41 -9 21 -1 26 3 22 18
-4 16 -2 17 18 6 15 -8 20 -8 16 -1 -4 6 -3 11 3 11 6 0 7 8 4 18 -6 15 -5 15
10 3 15 -12 17 -11 17 8 0 11 3 20 8 20 25 -4 42 2 36 14 -5 8 -3 8 9 -2 14
-11 18 -11 23 2 3 9 14 14 25 12 12 -3 17 0 13 7 -5 7 -2 9 9 5 12 -4 14 -2
10 11 -6 15 -5 15 11 3 9 -8 16 -10 14 -5 -5 18 23 56 38 50 9 -3 12 -1 9 4
-3 6 -2 10 3 10 5 0 8 13 7 29 -1 21 2 28 12 24 11 -4 11 -8 1 -22 -11 -14
-11 -14 3 -4 9 7 20 9 25 5 4 -4 3 0 -4 9 -6 9 -8 19 -4 23 7 7 8 11 11 37 0
5 5 8 9 5 5 -3 9 1 9 9 0 8 -4 12 -8 10 -4 -3 -10 2 -13 11 -5 12 -2 15 9 10
9 -3 13 -2 10 3 -3 6 3 14 12 20 25 14 7 14 -20 -1 -20 -10 -21 -10 -8 5 7 10
10 17 6 17 -4 0 -2 6 4 13 6 8 8 17 4 21 -15 15 -11 35 5 28 15 -5 15 -4 3 12
-16 19 -23 58 -9 50 4 -3 8 2 8 11 0 9 4 14 9 11 5 -4 8 2 6 11 -1 10 2 23 7
30 6 7 5 14 -2 18 -8 5 -6 14 7 28 l18 22 -22 -19 c-24 -20 -32 -10 -10 13 10
12 9 13 -7 7 -15 -5 -17 -4 -8 7 8 10 8 17 1 24 -8 8 -7 13 2 18 8 5 10 4 5
-3 -4 -7 -2 -12 3 -12 6 0 11 6 11 14 0 8 6 17 13 20 6 3 1 3 -13 0 -20 -5
-23 -4 -12 7 18 20 14 33 -5 18 -16 -12 -17 -12 -6 2 7 9 9 20 5 24 -4 5 2 5
13 1 11 -4 16 -4 12 0 -4 4 -1 14 6 23 11 14 10 14 -5 2 -12 -9 -18 -10 -19
-2 -1 6 -2 17 -3 24 -2 18 26 47 38 40 6 -3 7 -2 3 2 -10 12 -38 15 -31 4 3
-5 0 -9 -5 -9 -18 0 -12 17 12 33 l22 16 -23 -6 c-19 -5 -22 -2 -18 18 2 15 9
23 19 21 8 -1 19 3 23 9 4 7 3 9 -3 6 -16 -10 -31 41 -26 88 3 30 2 36 -6 25
-7 -9 -11 -10 -11 -3 0 6 5 15 11 18 6 5 4 12 -8 21 -13 10 -14 13 -2 9 12 -5
15 1 14 27 0 18 -4 39 -8 46 -5 7 -4 12 2 12 10 0 15 -12 13 -31 0 -3 8 -11
19 -17 19 -12 19 -12 4 12 -15 23 -15 25 2 36 13 8 14 10 2 7 -9 -3 -22 -1
-30 4 -11 7 -9 9 7 9 12 0 25 7 28 16 5 13 3 14 -7 6 -9 -8 -17 -8 -27 0 -13
8 -12 9 2 5 21 -7 28 11 16 43 -15 39 -18 61 -7 55 5 -4 7 -10 5 -14 -3 -4 -1
-13 3 -20 6 -9 11 -10 15 -2 4 6 2 11 -5 11 -8 0 -7 5 2 17 10 11 10 14 2 9
-8 -4 -13 -1 -13 9 0 9 5 13 10 10 6 -3 10 -1 10 4 0 14 -6 14 -33 0 -15 -7
-13 -2 8 15 17 14 24 26 17 26 -7 0 -10 5 -7 10 4 6 11 7 17 4 7 -5 8 -2 2 7
-4 8 -7 25 -5 38 1 13 -1 21 -7 17 -6 -3 -9 5 -8 18 1 16 6 22 15 18 10 -4 12
-1 6 9 -11 16 -14 48 -6 47 18 -2 24 3 13 11 -11 7 -11 9 1 14 16 6 17 -9 4
-30 -5 -8 -4 -13 2 -13 6 0 11 5 11 11 0 5 4 8 9 5 4 -3 6 7 3 22 -5 25 -4 26
14 12 17 -14 18 -14 6 2 -8 9 -19 16 -25 14 -7 -1 -8 -1 -4 2 4 2 3 10 -3 17
-7 9 -5 16 7 26 16 13 17 12 5 -3 -11 -14 -10 -18 10 -29 22 -12 22 -11 8 6
-14 17 -13 18 3 12 15 -5 16 -4 7 13 -14 26 -13 37 3 19 6 -8 11 -12 10 -10
-2 2 5 10 15 18 16 12 16 13 0 7 -10 -3 -18 -1 -18 5 0 6 8 11 18 11 15 1 15
2 -2 15 -23 17 -14 20 15 5 23 -13 25 -7 3 14 -9 9 -11 16 -4 16 6 0 8 6 4 13
-4 6 -4 9 1 5 9 -9 35 37 31 55 -1 7 -1 9 1 4 3 -4 9 -4 15 -1 6 4 5 -3 -2
-17 -10 -23 -10 -23 4 -5 13 16 13 22 3 34 -10 12 -9 14 3 10 21 -7 55 39 41
55 -7 10 -6 19 4 34 8 11 12 22 10 25 -3 3 2 5 10 5 13 0 13 -3 2 -16 -21 -25
-32 -45 -19 -37 5 3 12 3 15 -1 2 -5 2 -2 0 6 -2 8 4 22 13 33 16 17 16 19 0
31 -17 12 -17 14 0 28 9 7 19 13 21 11 2 -1 11 2 21 8 14 10 14 11 1 6 -13 -3
-16 2 -15 19 1 22 2 23 20 7 18 -16 18 -16 6 7 -10 20 -10 23 2 18 8 -3 21 -1
29 5 11 8 11 9 -3 4 -22 -7 -34 12 -18 27 8 7 10 8 7 1 -3 -6 0 -11 6 -11 15
0 16 35 3 55 -7 11 -4 12 13 3 15 -8 21 -9 21 -1 0 6 5 8 12 4 7 -4 8 -3 4 4
-4 6 -13 9 -20 6 -8 -3 -17 -1 -21 5 -4 7 0 8 11 4 12 -4 15 -3 10 5 -5 8 -2
10 8 6 9 -3 16 -1 16 4 0 6 -8 13 -17 15 -17 4 -17 5 0 6 11 1 15 6 11 12 -4
7 2 6 17 -2 22 -11 23 -11 9 5 -15 19 -23 49 -11 42 3 -3 18 4 31 15 18 14 20
19 8 17 -9 -2 -16 2 -15 7 1 6 7 10 12 9 6 -1 12 8 12 19 1 11 8 24 15 28 10
7 10 9 1 9 -7 0 -13 7 -13 16 0 8 -4 13 -8 10 -5 -3 -9 1 -9 9 0 18 9 19 27 3
12 -11 12 -10 3 2 -11 15 -13 20 -13 41 0 8 -5 7 -15 -1 -9 -7 -18 -10 -22 -6
-3 3 -1 6 5 6 7 0 12 12 12 26 0 14 -4 23 -9 20 -5 -3 -15 2 -22 11 -12 15
-12 16 1 8 23 -14 39 -15 47 -2 3 7 3 9 -2 5 -4 -4 -17 -2 -29 4 -11 7 -24 12
-28 13 -3 0 -10 4 -15 8 -4 5 -3 7 3 5 7 -1 12 2 12 7 0 6 -5 8 -12 7 -6 -2
-8 0 -4 4 4 4 2 14 -5 22 -8 10 -8 13 -1 9 7 -4 14 0 18 8 3 8 0 17 -6 21 -7
5 -8 2 -3 -6 6 -9 4 -11 -4 -6 -7 5 -10 14 -7 22 3 9 0 14 -7 12 -7 -2 -13 2
-14 7 0 6 3 9 8 7 5 -1 9 2 9 8 0 5 -7 10 -15 10 -8 0 -15 5 -15 11 0 5 -5 7
-12 3 -7 -4 -8 -3 -4 4 4 6 14 9 24 6 9 -2 7 1 -5 7 -13 7 -23 16 -23 21 0 5
-5 6 -12 2 -7 -4 -8 -3 -4 4 5 9 15 7 34 -4 19 -11 22 -12 10 -2 -10 8 -14 19
-10 23 4 5 3 6 -3 3 -5 -3 -19 -2 -30 3 -14 5 -16 8 -4 8 9 1 16 8 16 16 0 11
-4 12 -13 4 -9 -8 -11 -5 -7 12 5 17 3 20 -8 14 -12 -7 -12 -6 -1 7 9 12 10
18 2 23 -8 5 -5 12 7 22 16 13 16 13 -6 3 -19 -10 -26 -9 -40 5 -9 10 -11 15
-5 11 17 -9 25 20 10 33 -9 7 -17 7 -26 -2 -12 -10 -12 -9 -1 6 8 9 9 17 3 17
-12 0 -10 32 3 43 6 5 -1 5 -14 2 -19 -6 -23 -4 -18 9 4 9 -1 20 -11 26 -14 9
-14 10 6 5 13 -4 22 -2 22 5 0 6 -4 8 -10 5 -5 -3 -10 -2 -10 4 0 6 -8 8 -17
5 -10 -2 -8 1 5 7 21 11 31 30 15 28 -22 -4 -33 2 -27 14 6 9 5 9 -8 -1 -13
-10 -15 -9 -10 13 2 14 9 22 15 18 6 -3 7 -1 3 5 -4 7 -15 12 -24 12 -15 0
-15 2 -2 11 12 9 10 10 -9 5 -17 -3 -21 -2 -13 6 8 8 7 15 -6 25 -14 12 -14
14 -1 10 9 -3 16 1 16 8 0 8 -3 13 -6 12 -3 0 -17 3 -30 7 -18 6 -21 10 -10
17 8 5 19 9 24 9 6 0 3 -5 -5 -10 -9 -6 -10 -10 -3 -10 6 0 15 5 18 10 6 10
-34 31 -47 24 -4 -3 -3 10 2 27 7 24 6 28 -3 20 -10 -7 -13 -5 -14 10 -1 10 3
19 9 19 6 0 8 3 5 6 -4 4 -14 1 -24 -7 -13 -11 -15 -11 -9 -1 5 8 1 21 -8 31
-16 17 -16 20 -1 35 15 15 15 16 -4 16 -24 0 -24 21 -1 32 12 5 10 7 -5 8 -22
1 -67 30 -47 30 7 0 12 8 11 18 0 10 -3 12 -6 5 -2 -7 -9 -13 -14 -13 -6 0 -5
8 1 20 6 11 15 18 19 16 4 -3 8 1 8 9 0 11 -6 10 -26 -3 -26 -16 -26 -16 -8 4
17 20 17 22 0 35 -16 13 -17 12 -4 -4 12 -15 12 -17 -3 -11 -21 8 -20 20 2 33
11 7 13 10 3 11 -11 0 -11 3 0 18 13 15 12 16 -3 3 -10 -7 -16 -17 -13 -20 2
-4 -2 -8 -10 -8 -8 0 -12 4 -9 8 2 4 0 10 -6 14 -5 3 -10 11 -10 18 0 6 6 3
13 -7 13 -17 14 -17 20 -2 4 10 1 19 -8 22 -8 4 -15 17 -15 31 0 16 -4 22 -12
17 -8 -4 -10 -3 -5 2 5 5 13 9 18 9 5 0 8 5 7 10 -1 6 -9 9 -18 7 -9 -2 -11 0
-4 5 17 13 24 42 12 49 -6 4 -8 3 -4 -4 3 -6 3 -13 -2 -16 -4 -2 -8 4 -9 14
-1 10 6 21 15 23 15 4 15 5 0 6 -20 1 -24 16 -8 26 13 8 13 25 -1 25 -5 0 -8
-4 -5 -8 3 -5 -1 -9 -9 -9 -8 0 -13 3 -10 5 3 3 -1 12 -8 21 -10 14 -10 14 4
4 13 -11 19 -9 35 9 16 19 16 20 2 9 -13 -10 -18 -10 -18 -2 0 7 -4 9 -10 6
-6 -3 -7 1 -4 9 3 9 11 13 17 9 5 -3 7 -1 3 5 -3 5 -3 12 1 15 5 2 2 2 -6 0
-20 -5 -6 56 17 74 15 13 15 13 -6 3 -28 -14 -39 -8 -17 10 11 9 12 17 4 31
-5 10 -7 19 -4 19 4 0 0 6 -8 14 -8 9 -12 26 -9 45 4 27 6 30 21 19 14 -12 14
-11 2 4 -7 10 -17 16 -21 13 -5 -3 -11 -1 -14 4 -4 5 -1 13 5 17 8 5 9 3 4 -7
-7 -12 -6 -12 7 -1 17 13 18 28 4 50 -4 7 -5 16 -2 19 3 3 0 15 -6 27 -16 29
-18 46 -6 46 6 0 7 -8 3 -17 -5 -14 -4 -16 6 -6 10 10 9 17 -8 32 -11 11 -25
17 -29 13 -5 -4 0 3 10 15 10 13 22 20 26 18 9 -6 8 14 -1 30 -4 6 -5 18 -4
28 2 9 -1 15 -6 11 -5 -3 -9 2 -9 11 0 10 5 13 13 9 6 -4 9 -4 5 1 -4 4 -2 15
5 23 11 13 9 14 -13 2 -14 -7 -22 -9 -17 -5 4 5 0 19 -9 33 -8 13 -13 26 -10
30 3 3 6 -1 6 -8 0 -10 3 -11 10 -4 8 8 8 19 0 38 -6 17 -6 25 0 21 6 -3 10 1
10 10 0 10 -5 13 -12 9 -7 -4 -8 -3 -4 5 4 6 0 14 -9 17 -14 6 -14 8 2 21 10
8 12 11 4 7 -9 -5 -12 -3 -7 4 4 7 2 12 -3 12 -6 0 -11 5 -11 10 0 6 12 3 28
-7 22 -14 25 -15 15 -2 -7 9 -9 20 -5 24 4 5 3 6 -3 3 -5 -3 -19 4 -30 15
l-20 20 23 -12 c14 -8 22 -8 22 -1 0 5 -5 10 -11 10 -5 0 -7 5 -3 11 4 6 8 24
9 40 2 24 0 27 -15 19 -12 -6 -17 -5 -17 5 0 8 4 12 8 10 4 -3 10 2 13 11 9
24 7 31 -4 14 -7 -10 -10 -11 -10 -2 0 7 8 16 18 19 14 6 13 8 -7 13 -22 5
-23 7 -9 21 14 14 14 17 -3 27 -10 7 -19 18 -19 25 0 8 4 7 10 -3 8 -12 10
-11 10 7 0 12 5 23 12 25 7 3 5 7 -6 11 -10 4 -15 3 -11 -3 3 -6 2 -10 -3 -10
-6 0 -9 11 -8 24 1 23 2 24 21 8 19 -16 19 -16 6 0 -7 10 -10 25 -7 34 6 15 4
15 -11 3 -15 -12 -16 -12 -10 4 4 10 7 21 7 23 0 3 6 2 13 -2 6 -4 3 3 -8 16
-11 13 -14 20 -7 16 6 -4 12 -3 12 2 0 5 -10 12 -22 15 -17 5 -19 9 -9 21 7 8
14 36 15 63 2 26 2 40 -1 31 -6 -22 -19 -23 -27 -2 -3 8 -2 13 2 10 5 -3 16 9
26 27 l18 32 -21 -25 -21 -25 4 27 c3 15 8 33 12 39 4 7 3 9 -2 6 -5 -3 -21 3
-34 14 -18 13 -19 17 -6 13 16 -6 17 -4 7 14 -6 11 -8 29 -4 39 5 15 3 16 -8
6 -19 -18 -34 -16 -19 3 8 8 9 14 4 13 -22 -4 -34 2 -34 17 0 13 -3 14 -13 5
-11 -8 -18 -6 -33 10 -10 12 -18 23 -16 25 1 2 0 4 -3 4 -3 0 -8 0 -11 0 -4 0
1 -12 10 -27 l17 -28 -19 22 c-11 12 -23 19 -27 15 -3 -4 -6 -2 -5 3 1 6 2 17
1 25 -1 12 -4 11 -12 -3 -6 -9 -15 -15 -20 -11 -6 4 -6 11 2 20 10 12 8 13
-13 5 -18 -7 -25 -6 -25 4 0 7 7 11 16 8 14 -4 14 -3 1 5 -9 7 -18 8 -26 1 -8
-7 -14 -6 -19 1 -3 5 -1 10 4 10 6 0 11 6 11 13 -1 6 -9 2 -20 -11 -16 -20
-19 -20 -19 -5 -1 34 -4 53 -9 53 -3 0 -11 -8 -18 -17 -12 -17 -13 -16 -14 4
0 17 -6 23 -22 23 -38 0 -57 3 -55 9 1 3 -1 6 -4 6 -13 0 -39 28 -37 39 2 6
-1 12 -5 13 -5 1 -15 10 -23 20 -7 10 -14 13 -14 6 0 -6 5 -15 10 -18 13 -8
13 -25 -1 -25 -5 0 -7 5 -4 11 4 6 -2 13 -13 16 -11 3 -23 12 -27 20 -4 12 -2
13 8 5 10 -9 14 -8 14 2 0 8 -7 13 -16 11 -9 -1 -22 3 -30 9 -12 9 -12 7 -2
-14 10 -21 10 -22 -1 -9 -7 8 -21 18 -30 22 -11 4 -15 13 -11 29 5 23 5 23
-10 3 -8 -11 -19 -17 -23 -12 -4 4 -2 7 4 7 7 0 12 7 12 16 0 14 -2 15 -17 3
-13 -11 -15 -11 -9 -1 6 9 3 12 -9 10 -10 -2 -20 4 -22 12 -4 13 -3 13 7 0 10
-13 11 -13 8 0 -3 8 -17 14 -34 15 -25 0 -29 3 -27 28 1 15 -2 25 -7 22 -6 -4
-10 -13 -10 -21 0 -8 -4 -13 -10 -9 -5 3 -7 11 -4 19 3 7 -2 13 -11 13 -8 0
-15 -5 -15 -10 0 -5 -7 -4 -15 3 -8 7 -15 18 -15 24 0 6 5 4 10 -4 6 -9 12
-11 17 -5 5 6 6 9 4 8 -2 -2 -10 2 -17 8 -8 7 -14 7 -19 -1 -3 -5 -12 -10 -18
-10 -8 0 -7 3 2 9 10 7 11 12 1 27 -11 18 -11 18 -6 0 6 -16 4 -17 -9 -6 -14
12 -19 7 -16 -13 1 -5 -3 -6 -9 -2 -6 3 -8 10 -5 15 3 5 0 12 -6 15 -5 4 -8
13 -5 21 3 8 0 11 -9 7 -8 -3 -12 -10 -8 -17 3 -6 2 -7 -3 -3 -5 5 -10 13 -10
18 -1 5 -2 14 -3 20 0 5 -6 7 -11 4 -6 -4 -7 -12 -3 -18 4 -7 -1 -6 -11 2 -17
14 -16 16 6 33 l23 19 -28 -13 c-23 -10 -30 -9 -37 2 -5 8 -7 17 -4 21 5 9
-17 6 -34 -4 -7 -5 -9 -13 -6 -19 4 -7 2 -8 -5 -4 -9 6 -9 11 0 22 9 11 8 14
-4 14 -11 0 -15 7 -12 23 4 21 4 21 -10 3 -14 -18 -20 -15 -16 8 1 5 -5 4 -13
-4 -10 -8 -16 -9 -16 -2 0 6 -8 9 -17 6 -15 -5 -15 -4 -3 4 8 6 17 9 21 6 4
-2 11 1 15 7 4 8 3 9 -4 5 -7 -4 -12 -2 -12 3 0 6 -3 10 -7 10 -5 -1 -11 0
-15 1 -5 1 -14 3 -20 4 -7 1 -12 8 -10 16 3 12 1 13 -9 3 -19 -19 -31 -16 -24
6 3 11 1 22 -4 26 -7 3 -8 0 -5 -9 4 -11 0 -16 -11 -16 -9 0 -13 5 -10 10 3 6
-4 10 -15 10 -17 0 -21 4 -16 18 5 14 3 13 -10 -3 -16 -20 -16 -20 -9 3 6 20
3 22 -27 23 -18 1 -37 1 -41 0 -5 -1 -6 3 -2 8 3 6 -3 18 -14 27 -10 9 -17 24
-14 33 4 14 3 14 -6 1 -7 -10 -6 -19 5 -31 12 -14 12 -16 -1 -16 -8 0 -12 4
-9 8 2 4 0 10 -6 14 -6 4 -8 11 -5 16 4 5 1 9 -4 9 -6 0 -11 6 -11 14 0 8 -4
17 -8 20 -5 3 -8 -4 -8 -16 1 -12 -5 -23 -11 -25 -7 -3 -13 0 -13 7 0 6 5 8
11 5 6 -4 5 2 -3 14 -11 19 -14 19 -24 6 -11 -14 -12 -14 -18 0 -3 9 -2 13 4
10 6 -3 10 -1 10 4 0 10 -20 15 -56 14 -6 0 -11 6 -11 13 0 16 13 18 22 4 3
-5 11 -10 18 -10 6 0 1 7 -12 17 -21 14 -25 14 -35 2 -9 -13 -13 -12 -28 3
-10 10 -14 18 -10 18 4 0 13 -5 19 -11 7 -7 12 -6 16 4 4 10 -4 13 -29 12 -25
0 -41 6 -57 24 -12 13 -16 21 -9 17 6 -4 12 -3 12 2 0 6 -7 13 -16 16 -8 3
-12 2 -9 -4 10 -16 -10 -11 -32 8 -11 9 -18 24 -16 32 3 9 1 11 -4 4 -13 -17
-43 -25 -40 -11 1 7 -4 11 -11 9 -8 -1 -11 2 -7 8 5 8 11 8 19 1 9 -8 13 -7
13 2 0 7 -13 13 -29 14 -18 0 -25 -3 -21 -11 4 -6 -1 -5 -10 3 -18 15 -23 26
-7 16 6 -3 10 -1 10 4 0 10 -20 15 -56 14 -6 0 -11 6 -11 13 0 10 6 10 21 3
20 -10 20 -10 2 5 -16 13 -22 13 -34 3 -12 -9 -16 -9 -19 1 -3 6 -9 9 -15 6
-5 -4 -5 4 2 16 7 12 8 20 2 16 -5 -3 -12 1 -16 9 -3 8 -12 12 -21 9 -8 -3
-12 -11 -8 -17 4 -6 1 -7 -6 -3 -9 6 -8 13 6 29 l18 21 -27 -17 -26 -16 3 29
c3 25 2 28 -9 17 -8 -6 -11 -19 -9 -27 3 -8 -2 -5 -11 7 -9 12 -23 20 -30 17
-7 -3 -16 2 -20 12 -5 14 -4 15 8 5 10 -9 15 -8 19 2 6 16 -31 16 -41 0 -5 -8
-13 -7 -26 3 -11 8 -15 14 -10 14 6 0 11 7 11 15 0 19 -7 19 -21 -1 -10 -14
-14 -13 -30 5 -22 24 -15 29 8 5 9 -8 16 -10 16 -4 0 6 -7 13 -15 16 -8 4 -12
11 -8 18 5 8 3 8 -8 0 -19 -15 -46 -14 -46 3 0 9 4 10 14 1 11 -8 12 -7 7 6
-4 11 -13 15 -24 11 -12 -4 -22 1 -29 12 -6 10 -11 14 -11 8 -1 -5 -7 4 -15
20 -8 17 -13 22 -12 11 1 -10 -5 -21 -13 -23 -10 -3 -11 -2 -4 4 7 5 8 16 3
28 l-8 20 0 -20 c-1 -16 -3 -17 -10 -5 -6 8 -7 18 -5 22 8 13 -11 9 -25 -4
-11 -10 -13 -10 -7 0 7 11 -5 17 -27 13 -5 -1 -6 3 -2 9 3 6 12 8 18 4 7 -3 3
2 -8 11 -11 9 -19 22 -17 28 3 9 0 8 -9 0 -18 -17 -29 -16 -29 3 0 9 5 12 12
8 7 -4 8 -3 4 5 -6 9 -11 9 -21 1 -10 -8 -16 -4 -24 17 -6 16 -10 19 -7 7 2
-12 -2 -21 -9 -21 -7 0 -12 8 -10 18 2 10 -1 22 -7 25 -7 4 -8 2 -4 -4 4 -7 3
-12 -2 -12 -6 0 -13 7 -16 16 -3 8 -10 12 -16 9 -5 -3 -10 -1 -10 4 0 6 -5 11
-11 11 -5 0 -7 -5 -3 -12 4 -7 3 -8 -5 -4 -6 4 -9 12 -6 17 4 5 0 9 -8 9 -18
0 -51 30 -60 53 -4 10 -11 15 -17 12 -6 -3 -13 1 -16 9 -3 9 -10 13 -15 10 -5
-3 -9 0 -9 7 0 7 -3 10 -6 6 -9 -8 -33 16 -26 27 3 5 0 6 -7 2 -6 -4 -9 -11
-6 -16 3 -5 0 -12 -6 -16 -7 -4 -9 -3 -6 2 3 6 1 16 -4 24 -8 13 -10 13 -19 0
-8 -11 -9 -9 -5 11 5 19 2 28 -11 33 -13 5 -14 4 -6 -7 8 -9 8 -17 0 -27 -8
-13 -9 -12 -4 2 3 11 -2 19 -15 23 -10 4 -19 13 -19 21 0 8 -4 12 -10 9 -5 -3
-10 -1 -10 4 0 6 -3 10 -7 9 -15 -4 -53 13 -53 23 0 6 4 7 10 4 6 -3 7 1 3 10
-3 10 -8 13 -12 6 -4 -6 -17 -2 -34 13 -15 13 -23 27 -19 31 4 5 1 4 -7 0 -12
-7 -7 -14 19 -36 19 -16 31 -32 27 -35 -4 -4 -7 -2 -7 4 0 7 -6 12 -14 12 -8
0 -17 7 -20 16 -3 8 -11 12 -16 9 -6 -4 -10 -3 -9 2 3 19 -2 34 -10 29 -11 -7
-57 33 -53 46 1 5 -2 7 -7 4 -5 -3 -12 1 -15 10 -3 9 -11 12 -18 8 -8 -5 -9
-2 -5 10 4 10 3 15 -4 11 -5 -4 -7 -16 -3 -28 6 -20 6 -20 -10 -4 -10 9 -15
21 -11 26 3 6 -4 15 -15 21 -11 6 -20 8 -20 5 0 -3 -6 0 -14 7 -8 7 -11 18 -8
23 3 6 2 7 -3 3 -5 -5 -24 4 -43 19 -20 15 -32 21 -28 15 4 -7 4 -12 1 -12 -8
0 -35 26 -32 31 1 2 0 3 -2 1 -3 -1 -16 5 -30 14 -14 9 -20 11 -13 3 6 -7 12
-17 12 -23 0 -5 -9 1 -20 14 -11 12 -17 27 -14 32 4 6 -2 7 -15 3 -16 -5 -23
-1 -30 17 -9 21 -10 21 -11 3 -1 -19 -1 -19 -11 -2 -6 9 -14 15 -20 12 -5 -4
-9 -1 -9 5 0 7 -9 9 -22 5 -13 -3 -18 -3 -13 2 6 4 12 17 13 28 4 17 2 17 -15
-4 -15 -18 -20 -20 -20 -8 0 9 5 13 10 10 6 -3 7 -1 3 6 -6 9 -11 9 -22 0 -11
-9 -14 -8 -15 7 -1 11 -1 23 0 27 1 5 -3 6 -8 3 -5 -4 -8 -15 -6 -26 2 -12 0
-18 -6 -15 -5 4 -7 11 -4 16 4 5 1 9 -4 9 -6 0 -10 5 -8 12 1 7 -5 13 -13 13
-8 0 -14 6 -13 12 3 12 -23 12 -32 0 -3 -4 -2 -5 1 -2 4 2 13 -3 21 -11 8 -8
19 -12 24 -9 15 10 10 -2 -8 -16 -9 -8 -14 -9 -10 -3 3 6 -5 16 -19 23 -19 8
-24 16 -19 31 4 12 2 20 -5 20 -6 0 -8 -4 -5 -10 3 -5 -1 -10 -10 -10 -12 0
-15 6 -11 23 3 12 3 16 0 10 -7 -15 -44 -18 -44 -3 0 5 8 7 18 4 14 -5 14 -4
2 4 -9 7 -18 8 -26 1 -14 -12 -14 7 0 31 7 12 6 13 -5 3 -17 -17 -40 -17 -33
0 3 9 -3 13 -18 13 -13 -1 -22 4 -21 10 1 7 -6 10 -17 7 -11 -3 -20 -10 -20
-16 0 -6 -9 -1 -20 11 -12 12 -25 22 -30 22 -6 0 -10 5 -10 11 0 6 14 1 30
-11 43 -30 37 -18 -7 16 -20 15 -33 23 -30 17 4 -7 3 -14 -3 -18 -5 -3 -10 1
-10 9 0 11 -8 15 -30 12 -25 -3 -28 -1 -19 10 9 11 8 14 -5 14 -10 0 -14 5
-11 10 3 6 1 10 -4 10 -6 0 -11 -4 -11 -10 0 -5 -4 -10 -10 -10 -12 0 -9 22 5
33 6 5 3 7 -7 3 -22 -7 -48 2 -48 16 0 6 8 4 18 -3 15 -13 16 -12 3 3 -7 10
-17 16 -21 13 -5 -3 -12 0 -15 5 -5 8 -14 5 -28 -7 -19 -16 -20 -16 -8 0 11
14 11 17 -1 17 -8 0 -20 10 -26 23 -6 12 -11 16 -11 10 -1 -7 -6 -13 -12 -13
-5 0 -7 5 -4 10 8 13 -7 13 -23 0 -9 -7 -9 -7 -2 2 15 18 12 32 -3 19 -17 -14
-28 -4 -19 17 5 15 4 15 -12 3 -14 -12 -19 -12 -29 -1 -10 10 -9 12 5 7 12 -4
15 -2 12 7 -3 8 -14 12 -27 9 -18 -4 -19 -3 -7 6 9 7 11 11 3 11 -7 0 -16 -8
-22 -17 -9 -17 -10 -16 -10 2 -1 43 -5 53 -18 48 -7 -3 -13 -9 -13 -15 0 -5 5
-6 10 -3 16 10 11 -1 -7 -16 -9 -8 -14 -9 -10 -3 4 6 -2 22 -14 35 -11 12 -17
30 -14 38 4 11 0 10 -15 -4 -12 -11 -20 -13 -20 -6 0 7 -5 9 -12 5 -9 -5 -9
-2 1 9 9 12 10 17 2 17 -6 0 -14 -7 -18 -15 -5 -13 -8 -13 -20 5 -8 11 -20 18
-26 14 -7 -3 -4 1 6 9 27 22 20 29 -10 10 -27 -17 -28 -17 -13 2 9 11 10 16 3
11 -8 -4 -13 -2 -13 4 0 6 -4 8 -10 5 -5 -3 -10 -3 -11 2 -2 24 -8 46 -15 51
-4 4 -4 -1 -1 -10 4 -12 1 -18 -9 -18 -8 0 -12 -4 -9 -10 3 -6 -1 -7 -10 -3
-9 3 -13 9 -8 12 4 3 9 12 11 20 3 12 1 12 -14 0 -12 -9 -15 -9 -10 -1 4 6 2
12 -3 12 -6 0 -11 -8 -12 -17 0 -13 -2 -14 -6 -4 -3 8 3 21 13 28 18 14 18 14
-1 11 -13 -2 -19 2 -17 12 1 9 -7 5 -19 -10 -21 -24 -21 -24 -15 -2 5 14 3 22
-4 22 -6 0 -8 4 -5 10 3 5 0 7 -8 4 -8 -3 -18 0 -22 5 -3 6 -11 9 -16 6 -5 -4
-9 -1 -9 6 0 7 -8 9 -21 6 -14 -4 -23 1 -29 16 -8 21 -9 21 -10 2 l-1 -20 -9
20 c-5 11 -9 16 -9 10 -1 -5 -5 -4 -10 4 -7 11 -13 12 -23 4 -10 -8 -18 -8
-31 2 -10 7 -14 16 -8 19 5 3 12 1 14 -4 3 -6 4 -5 3 1 -1 7 -12 13 -23 14
-12 1 -19 -3 -17 -10 3 -6 -2 -12 -10 -12 -8 0 -13 4 -11 7 3 4 -7 8 -20 8
-14 0 -28 -5 -31 -9 -3 -5 -10 -7 -15 -3 -5 3 -7 10 -4 15 4 5 1 9 -5 9 -6 0
-8 5 -4 12 5 7 3 8 -5 4 -7 -5 -10 -14 -7 -22 3 -8 0 -11 -10 -7 -9 3 -13 13
-9 27 5 16 4 17 -4 7 -8 -13 -12 -13 -28 0 -17 13 -17 13 -3 -5z m-350 -116
c0 -5 -5 -10 -11 -10 -5 0 -7 5 -4 10 3 6 8 10 11 10 2 0 4 -4 4 -10z m740
-22 c0 -4 -6 -10 -12 -14 -7 -4 -10 -4 -6 1 11 11 -12 36 -25 28 -6 -3 -7 -1
-3 5 5 9 12 8 26 -1 11 -6 20 -15 20 -19z m-820 -32 c0 -3 -4 -8 -10 -11 -5
-3 -10 -1 -10 4 0 6 5 11 10 11 6 0 10 -2 10 -4z m-264 -158 c4 -7 3 -8 -4 -4
-7 4 -12 2 -12 -3 0 -6 -5 -11 -11 -11 -8 0 -8 5 1 15 15 18 17 18 26 3z
m1672 -173 c-3 -3 -9 2 -12 12 -6 14 -5 15 5 6 7 -7 10 -15 7 -18z m-1948 6
c0 -6 -4 -12 -8 -15 -5 -3 -9 1 -9 9 0 8 4 15 9 15 4 0 8 -4 8 -9z m-100 -59
c0 -4 -9 -13 -20 -19 -14 -9 -21 -10 -26 -1 -4 6 -3 8 3 5 6 -4 16 0 23 8 14
17 20 19 20 7z m2334 -111 c-2 -3 -12 3 -22 13 -16 17 -16 18 5 5 12 -7 20
-15 17 -18z m-2689 -121 c-3 -5 -1 -10 6 -10 7 0 10 -3 6 -6 -9 -9 -28 6 -22
17 4 5 8 9 11 9 3 0 2 -4 -1 -10z m-155 -113 c0 -7 -4 -6 -10 3 -8 12 -10 12
-10 1 0 -8 -3 -12 -6 -8 -9 9 6 28 17 22 5 -4 9 -12 9 -18z m-73 -39 c-3 -8
-6 -5 -6 6 -1 11 2 17 5 13 3 -3 4 -12 1 -19z m3401 9 c8 -10 6 -13 -7 -13
-11 0 -17 6 -14 13 3 7 6 13 8 13 1 0 7 -6 13 -13z m96 -59 c11 -10 15 -18 8
-18 -6 0 -14 5 -17 10 -4 6 -11 7 -17 4 -7 -4 -8 -2 -4 5 4 6 0 14 -8 17 -9 3
-16 11 -16 16 0 10 15 0 54 -34z m43 -40 c-3 -8 -6 -5 -6 6 -1 11 2 17 5 13 3
-3 4 -12 1 -19z m77 -33 c3 -8 1 -15 -4 -15 -6 0 -10 7 -10 15 0 8 2 15 4 15
2 0 6 -7 10 -15z m-3863 -22 c-11 -5 -11 -7 0 -15 11 -8 10 -9 -3 -4 -10 3
-21 -1 -26 -11 -8 -14 -10 -13 -15 1 -4 10 -3 15 2 12 5 -3 14 1 21 9 7 8 18
15 24 14 6 0 5 -3 -3 -6z m-231 -149 c0 -8 -5 -12 -10 -9 -6 4 -8 11 -5 16 9
14 15 11 15 -7z m40 0 c0 -8 -19 -13 -24 -6 -3 5 1 9 9 9 8 0 15 -2 15 -3z
m4456 -99 c10 -8 15 -14 9 -14 -5 0 -19 6 -29 14 -11 8 -15 15 -10 15 6 0 19
-7 30 -15z m-4778 -89 c-10 -7 -15 -16 -11 -19 3 -4 4 -7 1 -7 -3 0 -12 8 -19
17 -8 9 -9 14 -4 11 6 -4 17 -3 25 3 22 13 27 10 8 -5z m4927 -16 c-3 -5 -12
-10 -18 -10 -7 0 -6 4 3 10 19 12 23 12 15 0z m129 -78 c2 -4 -5 -9 -17 -9
-17 -2 -19 0 -7 7 18 12 18 12 24 2z m-5608 -274 c4 -7 3 -8 -4 -4 -7 4 -12 2
-12 -3 0 -6 -5 -11 -11 -11 -8 0 -8 5 1 15 15 18 17 18 26 3z m6068 -14 c3 -8
2 -12 -4 -9 -6 3 -10 10 -10 16 0 14 7 11 14 -7z m-6334 -153 c0 -5 -7 -12
-16 -15 -14 -5 -15 -4 -4 9 14 17 20 19 20 6z m-256 -177 c3 -8 2 -12 -4 -9
-6 3 -10 10 -10 16 0 14 7 11 14 -7z m7093 -6 c-3 -8 -6 -5 -6 6 -1 11 2 17 5
13 3 -3 4 -12 1 -19z m-7123 -19 c-3 -5 -10 -7 -15 -3 -5 3 -7 10 -3 15 3 5
10 7 15 3 5 -3 7 -10 3 -15z m7237 -62 c-10 -9 -11 -8 -5 6 3 10 9 15 12 12 3
-3 0 -11 -7 -18z m-7386 -26 c3 -5 2 -12 -3 -15 -5 -3 -9 1 -9 9 0 17 3 19 12
6z m7519 -29 c3 -5 -1 -9 -9 -9 -8 0 -12 4 -9 9 3 4 7 8 9 8 2 0 6 -4 9 -8z
m31 -12 c3 -5 1 -10 -4 -10 -6 0 -11 5 -11 10 0 6 2 10 4 10 3 0 8 -4 11 -10z
m-7655 -20 c0 -5 -5 -10 -11 -10 -5 0 -7 5 -4 10 3 6 8 10 11 10 2 0 4 -4 4
-10z m-6 -28 c3 -5 -1 -9 -9 -9 -8 0 -12 4 -9 9 3 4 7 8 9 8 2 0 6 -4 9 -8z
m7794 -47 c-3 -3 -9 2 -12 12 -6 14 -5 15 5 6 7 -7 10 -15 7 -18z m-7897 -28
c-10 -9 -11 -8 -5 6 3 10 9 15 12 12 3 -3 0 -11 -7 -18z m-138 -73 c-4 -12 -8
-13 -14 -3 -9 15 -2 32 11 24 5 -3 6 -13 3 -21z m-160 -91 c-3 -7 -6 -13 -8
-13 -2 0 -5 6 -8 13 -3 8 1 14 8 14 7 0 11 -6 8 -14z m-99 -61 c3 -5 -1 -9 -9
-9 -8 0 -12 4 -9 9 3 4 7 8 9 8 2 0 6 -4 9 -8z m-174 -102 c0 -5 -5 -10 -11
-10 -5 0 -7 5 -4 10 3 6 8 10 11 10 2 0 4 -4 4 -10z m-113 -71 c-9 -6 -14 -16
-11 -22 5 -8 3 -8 -6 0 -12 11 -11 15 6 27 10 8 21 12 24 9 3 -2 -3 -9 -13
-14z m-182 -129 c3 -6 -1 -7 -9 -4 -18 7 -21 14 -7 14 6 0 13 -4 16 -10z
m9752 -130 c-1 -11 -5 -20 -9 -20 -10 0 -10 4 -2 24 8 22 13 20 11 -4z m23
-113 c0 -4 -4 -6 -9 -3 -5 4 -11 3 -14 -1 -2 -5 -3 -3 -1 3 1 6 -3 17 -9 24
-8 8 -5 8 11 -1 12 -8 22 -17 22 -22z m10 -101 c0 -2 -8 -10 -17 -17 -16 -13
-17 -12 -4 4 13 16 21 21 21 13z m-10010 -10 c0 -2 -7 -7 -16 -10 -8 -3 -12
-2 -9 4 6 10 25 14 25 6z m-43 -291 c0 -8 -4 -12 -9 -9 -5 3 -6 10 -3 15 9 13
12 11 12 -6z m10079 0 c-1 -8 -6 -18 -11 -22 -4 -4 -5 -2 -1 5 4 7 2 12 -6 12
-9 0 -9 3 2 10 19 12 19 13 16 -5z m-10083 -250 c-3 -9 -8 -14 -10 -11 -3 3
-2 9 2 15 9 16 15 13 8 -4z m10120 -148 c-3 -4 -6 -7 -7 -5 -1 2 -8 12 -16 22
-14 18 -14 18 7 6 12 -8 19 -18 16 -23z m-10138 -37 c3 -5 1 -10 -4 -10 -6 0
-11 5 -11 10 0 6 2 10 4 10 3 0 8 -4 11 -10z m-12 -33 c3 -8 0 -14 -7 -14 -7
0 -13 6 -13 14 0 7 4 13 8 13 4 0 9 -6 12 -13z m10164 -112 c0 -10 -5 -11 -19
-4 -10 5 -18 11 -18 12 0 2 8 3 18 4 10 1 19 -5 19 -12z m4 -156 c8 -15 8 -19
0 -15 -6 4 -11 2 -11 -3 0 -6 -5 -11 -12 -11 -9 0 -9 3 0 12 15 15 16 31 0 22
-7 -4 -8 -3 -4 4 10 16 14 15 27 -9z m-10184 -10 c-9 -6 -14 -15 -11 -21 4 -7
2 -8 -5 -4 -14 9 3 36 23 36 6 0 3 -5 -7 -11z m-10 -46 c-4 -3 1 -11 10 -18
13 -9 13 -14 3 -20 -8 -5 -11 -4 -6 3 3 6 -3 13 -14 17 -20 6 -19 25 2 25 6 0
8 -3 5 -7z m10185 -10 c-6 -2 -9 -10 -6 -15 4 -7 2 -8 -5 -4 -13 9 -5 26 12
25 9 0 8 -2 -1 -6z m-10232 -273 c0 -5 -5 -10 -11 -10 -5 0 -7 5 -4 10 3 6 8
10 11 10 2 0 4 -4 4 -10z m-30 -60 c0 -5 -5 -10 -11 -10 -5 0 -7 5 -4 10 3 6
8 10 11 10 2 0 4 -4 4 -10z m-147 -323 c3 -8 -1 -14 -8 -14 -7 0 -11 6 -8 14
3 7 6 13 8 13 2 0 5 -6 8 -13z m10714 -263 c-3 -3 -12 -4 -19 -1 -8 3 -5 6 6
6 11 1 17 -2 13 -5z m-10916 -171 c-12 -20 -14 -14 -5 12 4 9 9 14 11 11 3 -2
0 -13 -6 -23z m11014 -53 c3 -6 -1 -7 -9 -4 -18 7 -21 14 -7 14 6 0 13 -4 16
-10z m170 -470 c3 -5 1 -10 -4 -10 -6 0 -11 5 -11 10 0 6 2 10 4 10 3 0 8 -4
11 -10z m-11295 -74 c0 -3 -4 -8 -10 -11 -5 -3 -10 -1 -10 4 0 6 5 11 10 11 6
0 10 -2 10 -4z m152 -394 c-8 -2 -4 -11 10 -23 l23 -20 -27 16 c-16 10 -25 22
-21 31 3 8 10 11 16 7 8 -5 7 -8 -1 -11z m10918 -31 c0 -5 -7 -14 -15 -21 -16
-14 -18 -10 -9 14 6 17 24 22 24 7z m-10770 -245 c0 -2 -7 -7 -16 -10 -8 -3
-12 -2 -9 4 6 10 25 14 25 6z m24 -115 c4 -5 -1 -8 -9 -7 -21 3 -31 16 -12 16
9 0 18 -4 21 -9z m10 -37 c3 -8 2 -12 -4 -9 -6 3 -10 10 -10 16 0 14 7 11 14
-7z m10516 -50 c0 -8 -19 -13 -24 -6 -3 5 1 9 9 9 8 0 15 -2 15 -3z m-5 -34
c-3 -5 -11 -10 -16 -10 -6 0 -7 5 -4 10 3 6 11 10 16 10 6 0 7 -4 4 -10z m-27
-135 c-3 -3 -9 2 -12 12 -6 14 -5 15 5 6 7 -7 10 -15 7 -18z m17 -25 c3 -5 1
-10 -4 -10 -6 0 -11 5 -11 10 0 6 2 10 4 10 3 0 8 -4 11 -10z m-20 -300 c3 -5
1 -10 -4 -10 -6 0 -11 5 -11 10 0 6 2 10 4 10 3 0 8 -4 11 -10z m-10413 -38
c-7 -2 -9 -9 -5 -15 3 -7 2 -8 -2 -4 -16 14 -14 36 3 29 10 -4 12 -7 4 -10z
m24 -287 c-11 -8 -16 -15 -12 -15 4 0 4 -5 1 -10 -4 -6 -11 -7 -17 -4 -11 7
25 44 41 44 3 0 -3 -7 -13 -15z m10383 -44 c9 -6 10 -11 2 -15 -6 -4 -9 -11
-7 -15 3 -4 -1 -8 -9 -8 -12 0 -12 3 -3 14 9 11 8 17 -3 24 -8 5 -9 9 -4 9 6
0 16 -4 24 -9z m-10312 -206 c0 -8 -4 -15 -9 -15 -10 0 -11 14 -1 23 9 10 10
9 10 -8z m10278 -64 c3 -5 2 -12 -3 -15 -5 -3 -9 1 -9 9 0 17 3 19 12 6z m-16
-35 c9 -11 9 -16 -1 -22 -7 -4 -10 -4 -6 1 4 4 3 14 -3 22 -6 7 -9 13 -6 13 2
0 10 -6 16 -14z m-9999 -80 c0 -3 -4 -8 -10 -11 -5 -3 -10 -1 -10 4 0 6 5 11
10 11 6 0 10 -2 10 -4z m500 -326 c0 -5 -2 -10 -4 -10 -3 0 -8 5 -11 10 -3 6
-1 10 4 10 6 0 11 -4 11 -10z m8923 -15 c-3 -9 -8 -14 -10 -11 -3 3 -2 9 2 15
9 16 15 13 8 -4z m-86 -47 c-3 -8 -6 -5 -6 6 -1 11 2 17 5 13 3 -3 4 -12 1
-19z m-106 -51 c-10 -9 -11 -8 -5 6 3 10 9 15 12 12 3 -3 0 -11 -7 -18z
m-8493 -43 c-4 -3 -12 5 -18 18 -12 22 -12 22 6 6 10 -10 15 -20 12 -24z m42
0 c0 -8 -19 -13 -24 -6 -3 5 1 9 9 9 8 0 15 -2 15 -3z m104 -66 c-5 -7 8 -12
27 -10 3 1 6 -5 6 -13 0 -11 -7 -9 -29 6 -32 23 -33 26 -13 26 8 0 12 -4 9 -9z
m8196 2 c0 -5 -2 -10 -4 -10 -3 0 -8 5 -11 10 -3 6 -1 10 4 10 6 0 11 -4 11
-10z m-7945 -159 c3 -6 -15 2 -40 15 -25 14 -45 28 -45 30 0 7 78 -35 85 -45z
m65 -15 c0 -2 -8 -10 -17 -17 -16 -13 -17 -12 -4 4 13 16 21 21 21 13z m95
-84 c-3 -3 -11 0 -18 7 -9 10 -8 11 6 5 10 -3 15 -9 12 -12z m6984 -138 c-6
-7 -15 -11 -21 -8 -5 3 -4 12 3 20 6 7 15 11 21 8 5 -3 4 -12 -3 -20z m-235
-122 c3 -5 -7 -18 -23 -29 -20 -15 -28 -17 -28 -8 0 8 3 13 6 13 14 -3 40 15
35 23 -3 5 -3 9 0 9 3 0 7 -4 10 -8z m-6140 -121 c3 -5 -1 -11 -9 -14 -9 -4
-12 -1 -8 9 6 16 10 17 17 5z m5788 -93 c-14 -14 -44 -20 -36 -7 3 5 9 7 14 4
5 -3 11 -1 15 5 3 5 9 10 13 10 3 0 1 -5 -6 -12z m-5611 -41 c-10 -9 -11 -8
-5 6 3 10 9 15 12 12 3 -3 0 -11 -7 -18z m5344 -127 c3 -6 -1 -7 -9 -4 -18 7
-21 14 -7 14 6 0 13 -4 16 -10z m-5108 -6 c-3 -3 -12 -4 -19 -1 -8 3 -5 6 6 6
11 1 17 -2 13 -5z m5043 2 c0 -2 -8 -10 -17 -17 -16 -13 -17 -12 -4 4 13 16
21 21 21 13z m-4930 -83 c0 -3 -7 -3 -15 1 -8 3 -15 1 -15 -5 0 -6 -5 -7 -11
-3 -8 4 -7 9 2 14 12 8 39 3 39 -7z m4570 -158 c-7 -9 -15 -13 -19 -10 -3 3 1
10 9 15 21 14 24 12 10 -5z m-4317 -20 c-3 -9 -8 -14 -10 -11 -3 3 -2 9 2 15
9 16 15 13 8 -4z m3997 -144 c0 -5 -7 -12 -16 -15 -14 -5 -15 -4 -4 9 14 17
20 19 20 6z m-3702 -53 c-2 -7 3 -12 10 -10 8 1 11 -2 7 -8 -5 -8 -11 -8 -21
1 -7 6 -11 15 -8 20 8 13 14 11 12 -3z m3592 -23 c0 -1 -9 -10 -20 -20 -19
-17 -20 -17 -20 -1 0 11 5 14 12 10 7 -5 9 -2 5 9 -4 11 -2 14 9 10 7 -3 14
-6 14 -8z m-3170 -255 c0 -5 -5 -10 -11 -10 -5 0 -7 5 -4 10 3 6 8 10 11 10 2
0 4 -4 4 -10z m2687 -45 c0 -8 -4 -12 -9 -9 -5 3 -6 10 -3 15 9 13 12 11 12
-6z m-412 -254 c3 -5 1 -12 -5 -16 -5 -3 -10 1 -10 9 0 18 6 21 15 7z m-1685
-74 c11 -21 11 -21 -4 -3 -9 11 -16 16 -16 12 0 -4 -5 -4 -10 -1 -6 4 -8 11
-4 16 7 12 22 3 34 -24z m171 -100 c-10 -9 -11 -8 -5 6 3 10 9 15 12 12 3 -3
0 -11 -7 -18z m194 -97 c-3 -5 -1 -10 6 -10 7 0 10 -3 6 -6 -9 -9 -28 6 -22
17 4 5 8 9 11 9 3 0 2 -4 -1 -10z m85 -71 c0 -6 -4 -7 -10 -4 -5 3 -10 11 -10
16 0 6 5 7 10 4 6 -3 10 -11 10 -16z m571 -36 c-12 -20 -14 -14 -5 12 4 9 9
14 11 11 3 -2 0 -13 -6 -23z"/>
<path d="M7704 13279 c0 -13 3 -15 13 -7 7 6 13 12 13 13 0 2 -6 5 -13 8 -7 3
-13 -3 -13 -14z"/>
<path d="M7466 13282 c-3 -5 1 -9 9 -9 8 0 12 4 9 9 -3 4 -7 8 -9 8 -2 0 -6
-4 -9 -8z"/>
<path d="M7370 13248 c-12 -22 -12 -22 6 -6 10 10 15 20 12 24 -4 3 -12 -5
-18 -18z"/>
<path d="M7839 13253 c-13 -17 -13 -17 6 -3 11 8 22 16 24 17 2 2 0 3 -6 3 -6
0 -17 -8 -24 -17z"/>
<path d="M7257 13219 c7 -7 15 -10 18 -7 3 3 -2 9 -12 12 -14 6 -15 5 -6 -5z"/>
<path d="M7290 13209 c0 -5 5 -7 10 -4 6 3 10 8 10 11 0 2 -4 4 -10 4 -5 0
-10 -5 -10 -11z"/>
<path d="M8225 13041 c-3 -5 -2 -12 3 -15 5 -3 9 1 9 9 0 17 -3 19 -12 6z"/>
<path d="M6756 12902 c-2 -4 -1 -14 3 -21 6 -9 11 -10 15 -2 4 6 2 11 -4 11
-6 0 -8 5 -5 10 3 6 4 10 1 10 -3 0 -7 -4 -10 -8z"/>
<path d="M6710 12866 c0 -2 7 -7 16 -10 8 -3 12 -2 9 4 -6 10 -25 14 -25 6z"/>
<path d="M5886 12333 c-6 -14 -5 -15 5 -6 7 7 10 15 7 18 -3 3 -9 -2 -12 -12z"/>
<path d="M5755 12260 c-3 -5 -1 -10 4 -10 6 0 11 5 11 10 0 6 -2 10 -4 10 -3
0 -8 -4 -11 -10z"/>
<path d="M9790 12120 c-13 -8 -12 -10 3 -10 9 0 17 5 17 10 0 12 -1 12 -20 0z"/>
<path d="M5395 12041 c-3 -5 -2 -12 3 -15 5 -3 9 1 9 9 0 17 -3 19 -12 6z"/>
<path d="M5247 11925 c3 -8 9 -12 14 -9 12 7 11 11 -5 17 -10 4 -13 1 -9 -8z"/>
<path d="M10060 11926 c0 -2 7 -7 16 -10 8 -3 12 -2 9 4 -6 10 -25 14 -25 6z"/>
<path d="M5000 11761 c0 -7 -5 -9 -12 -5 -7 5 -8 3 -3 -5 5 -9 10 -10 18 -2 6
6 8 14 4 18 -4 3 -7 1 -7 -6z"/>
<path d="M4855 11680 c-3 -5 -1 -10 4 -10 6 0 11 5 11 10 0 6 -2 10 -4 10 -3
0 -8 -4 -11 -10z"/>
<path d="M10555 11590 c-3 -5 -1 -10 4 -10 6 0 11 5 11 10 0 6 -2 10 -4 10 -3
0 -8 -4 -11 -10z"/>
<path d="M10755 11470 c3 -5 8 -10 11 -10 2 0 4 5 4 10 0 6 -5 10 -11 10 -5 0
-7 -4 -4 -10z"/>
<path d="M11016 11321 c-3 -5 1 -14 8 -20 10 -9 16 -9 21 -1 4 6 1 9 -7 8 -7
-2 -12 3 -10 10 2 14 -4 16 -12 3z"/>
<path d="M11301 11143 c-1 -17 16 -25 25 -12 4 7 3 9 -4 5 -5 -3 -13 0 -15 6
-4 9 -6 10 -6 1z"/>
<path d="M3970 11120 c0 -5 5 -10 11 -10 5 0 7 5 4 10 -3 6 -8 10 -11 10 -2 0
-4 -4 -4 -10z"/>
<path d="M3636 10881 c-3 -5 1 -11 9 -14 9 -4 12 -1 8 9 -6 16 -10 17 -17 5z"/>
<path d="M11756 10848 c3 -5 10 -6 15 -3 13 9 11 12 -6 12 -8 0 -12 -4 -9 -9z"/>
<path d="M3467 10769 c7 -7 15 -10 18 -7 3 3 -2 9 -12 12 -14 6 -15 5 -6 -5z"/>
<path d="M11922 10754 c-7 -8 -8 -14 -3 -14 10 0 25 19 20 25 -2 1 -10 -3 -17
-11z"/>
<path d="M3361 10709 c7 -4 8 -12 4 -20 -5 -8 2 -5 16 6 13 11 25 20 27 21 1
0 -12 1 -28 1 -17 0 -26 -4 -19 -8z"/>
<path d="M12040 10670 c-8 -5 -10 -10 -5 -10 6 0 17 5 25 10 8 5 11 10 5 10
-5 0 -17 -5 -25 -10z"/>
<path d="M12186 10581 c-4 -5 -2 -12 4 -16 5 -3 10 -3 10 1 0 4 8 0 18 -8 29
-25 40 -29 48 -17 4 7 3 9 -4 5 -5 -3 -24 5 -40 19 -17 14 -33 21 -36 16z"/>
<path d="M12510 10401 c0 -6 4 -13 10 -16 6 -3 7 1 4 9 -7 18 -14 21 -14 7z"/>
<path d="M12574 10392 c3 -5 0 -13 -6 -15 -9 -4 -10 -6 -1 -6 17 -1 25 16 12
25 -7 4 -9 3 -5 -4z"/>
<path d="M12630 10279 c0 -5 5 -7 10 -4 6 3 10 8 10 11 0 2 -4 4 -10 4 -5 0
-10 -5 -10 -11z"/>
<path d="M2655 10240 c3 -5 2 -10 -3 -10 -5 0 -9 -7 -9 -15 0 -20 2 -19 21 10
15 23 15 25 1 25 -9 0 -13 -4 -10 -10z"/>
<path d="M2625 10180 c-3 -6 1 -7 9 -4 18 7 21 14 7 14 -6 0 -13 -4 -16 -10z"/>
<path d="M12651 10077 c-8 -10 -7 -14 2 -14 8 0 14 6 14 14 0 7 -1 13 -2 13
-2 0 -8 -6 -14 -13z"/>
<path d="M2586 9865 c-18 -14 -18 -14 1 -12 11 0 20 7 20 14 0 7 -1 13 -1 13
-1 0 -9 -7 -20 -15z"/>
<path d="M2575 9780 c3 -5 8 -10 11 -10 2 0 4 5 4 10 0 6 -5 10 -11 10 -5 0
-7 -4 -4 -10z"/>
<path d="M2575 9649 c-4 -6 -5 -12 -2 -15 2 -3 7 2 10 11 7 17 1 20 -8 4z"/>
<path d="M12710 9579 c0 -5 -5 -7 -12 -3 -7 4 -8 3 -4 -5 6 -9 11 -9 22 0 17
14 18 19 4 19 -5 0 -10 -5 -10 -11z"/>
<path d="M12710 9501 c0 -6 4 -13 10 -16 6 -3 7 1 4 9 -7 18 -14 21 -14 7z"/>
<path d="M12706 9462 c-2 -4 -1 -14 3 -21 6 -10 10 -9 14 3 6 16 -8 32 -17 18z"/>
<path d="M2540 9320 c0 -5 7 -7 15 -4 8 4 15 8 15 10 0 2 -7 4 -15 4 -8 0 -15
-4 -15 -10z"/>
<path d="M12715 9280 c3 -5 8 -10 11 -10 2 0 4 5 4 10 0 6 -5 10 -11 10 -5 0
-7 -4 -4 -10z"/>
<path d="M12735 9041 c-3 -5 -2 -12 3 -15 5 -3 9 1 9 9 0 17 -3 19 -12 6z"/>
<path d="M2515 8880 c-3 -5 -1 -10 4 -10 6 0 11 5 11 10 0 6 -2 10 -4 10 -3 0
-8 -4 -11 -10z"/>
<path d="M2513 8815 c0 -14 3 -25 8 -25 4 0 6 10 4 21 -6 32 -12 34 -12 4z"/>
<path d="M2488 8753 c6 -2 9 -10 6 -15 -4 -7 -2 -8 5 -4 13 9 5 26 -12 25 -9
0 -8 -2 1 -6z"/>
<path d="M2420 8560 c0 -5 5 -10 11 -10 5 0 7 5 4 10 -3 6 -8 10 -11 10 -2 0
-4 -4 -4 -10z"/>
<path d="M12845 8421 c-6 -11 13 -26 22 -17 4 3 1 6 -6 6 -7 0 -9 5 -6 10 3 6
4 10 1 10 -3 0 -7 -4 -11 -9z"/>
<path d="M12886 8321 c-3 -5 1 -14 9 -21 10 -9 15 -9 15 -1 0 6 -5 11 -11 11
-5 0 -7 5 -4 10 3 6 4 10 1 10 -3 0 -7 -4 -10 -9z"/>
<path d="M2211 8071 c-8 -5 -9 -11 -3 -15 5 -3 12 1 16 9 6 17 6 18 -13 6z"/>
<path d="M13095 7891 c-3 -5 -2 -12 3 -15 5 -3 9 1 9 9 0 17 -3 19 -12 6z"/>
<path d="M2020 7723 c0 -15 18 -35 23 -27 3 5 -1 15 -9 22 -8 7 -14 9 -14 5z"/>
<path d="M1945 7530 c8 -13 -20 -42 -30 -32 -5 4 -5 1 -1 -6 6 -11 13 -8 32 9
28 27 28 25 8 33 -8 3 -12 2 -9 -4z"/>
<path d="M13245 7521 c-6 -11 13 -26 22 -17 4 3 1 6 -6 6 -7 0 -9 5 -6 10 3 6
4 10 1 10 -3 0 -7 -4 -11 -9z"/>
<path d="M13271 7486 c-9 -10 -9 -16 -1 -21 6 -4 14 -4 17 -1 4 3 1 6 -7 6
-10 0 -10 3 0 15 7 8 10 15 7 15 -2 0 -10 -6 -16 -14z"/>
<path d="M1910 7459 c0 -5 5 -7 10 -4 6 3 10 8 10 11 0 2 -4 4 -10 4 -5 0 -10
-5 -10 -11z"/>
<path d="M1910 7306 c0 -2 7 -7 16 -10 8 -3 12 -2 9 4 -6 10 -25 14 -25 6z"/>
<path d="M13266 7181 c-4 -5 3 -7 14 -4 23 6 26 13 6 13 -8 0 -17 -4 -20 -9z"/>
<path d="M2051 7011 c-9 -6 -10 -11 -2 -15 6 -4 9 -11 7 -15 -3 -4 1 -8 9 -8
11 0 12 4 4 13 -6 7 -8 18 -4 24 7 12 4 12 -14 1z"/>
<path d="M13115 6910 c-3 -5 -1 -10 4 -10 6 0 11 5 11 10 0 6 -2 10 -4 10 -3
0 -8 -4 -11 -10z"/>
<path d="M2110 6871 c0 -5 5 -13 10 -16 6 -3 10 -2 10 4 0 5 -4 13 -10 16 -5
3 -10 2 -10 -4z"/>
<path d="M13002 6670 c-7 -11 -9 -20 -4 -20 4 0 13 9 20 20 7 11 9 20 4 20 -4
0 -13 -9 -20 -20z"/>
<path d="M2240 6594 c0 -17 27 -37 34 -25 4 5 2 12 -4 16 -5 3 -10 3 -10 -2 0
-4 -5 -1 -10 7 -5 8 -10 10 -10 4z"/>
<path d="M12835 6005 c0 -19 5 -38 9 -42 5 -4 6 -3 2 5 -4 7 -2 12 6 12 9 0
10 3 2 8 -6 4 -10 15 -8 24 1 10 -1 20 -5 22 -4 3 -7 -10 -6 -29z"/>
<path d="M2359 5913 c-13 -16 -12 -17 4 -4 9 7 17 15 17 17 0 8 -8 3 -21 -13z"/>
<path d="M12835 5900 c3 -5 8 -10 11 -10 2 0 4 5 4 10 0 6 -5 10 -11 10 -5 0
-7 -4 -4 -10z"/>
<path d="M12823 5815 c0 -7 6 -11 14 -8 7 3 13 6 13 8 0 2 -6 5 -13 8 -8 3
-14 -1 -14 -8z"/>
<path d="M12830 5720 c-8 -15 -8 -18 3 -14 8 3 14 11 14 19 0 20 -4 19 -17 -5z"/>
<path d="M2388 5673 c7 -3 16 -2 19 1 4 3 -2 6 -13 5 -11 0 -14 -3 -6 -6z"/>
<path d="M2410 5480 c-9 -6 -10 -10 -3 -10 6 0 15 5 18 10 8 12 4 12 -15 0z"/>
<path d="M12807 5395 c-8 -19 5 -26 23 -14 11 6 12 9 2 9 -7 0 -10 5 -7 10 3
6 2 10 -3 10 -6 0 -12 -7 -15 -15z"/>
<path d="M2435 5351 c-3 -5 -2 -12 3 -15 5 -3 9 1 9 9 0 17 -3 19 -12 6z"/>
<path d="M12806 5328 c3 -5 10 -6 15 -3 13 9 11 12 -6 12 -8 0 -12 -4 -9 -9z"/>
<path d="M12805 5300 c-3 -5 -2 -10 4 -10 5 0 13 5 16 10 3 6 2 10 -4 10 -5 0
-13 -4 -16 -10z"/>
<path d="M2800 5060 c-13 -8 -12 -10 3 -10 9 0 17 5 17 10 0 12 -1 12 -20 0z"/>
<path d="M2886 5007 c3 -10 9 -15 12 -12 3 3 0 11 -7 18 -10 9 -11 8 -5 -6z"/>
<path d="M12545 4969 c-11 -16 -1 -19 13 -3 7 8 8 14 3 14 -5 0 -13 -5 -16
-11z"/>
<path d="M3276 4743 c-6 -14 -5 -15 5 -6 7 7 10 15 7 18 -3 3 -9 -2 -12 -12z"/>
<path d="M3440 4655 c-11 -13 -10 -14 4 -9 9 3 16 10 16 15 0 13 -6 11 -20 -6z"/>
<path d="M3550 4589 c0 -5 5 -7 10 -4 6 3 10 8 10 11 0 2 -4 4 -10 4 -5 0 -10
-5 -10 -11z"/>
<path d="M3590 4560 c0 -5 5 -10 11 -10 5 0 7 5 4 10 -3 6 -8 10 -11 10 -2 0
-4 -4 -4 -10z"/>
<path d="M11870 4560 c0 -5 5 -10 10 -10 6 0 10 5 10 10 0 6 -4 10 -10 10 -5
0 -10 -4 -10 -10z"/>
<path d="M11595 4500 c-4 -6 -14 -9 -22 -5 -13 4 -14 3 -3 -9 11 -14 14 -14
27 0 9 8 13 17 10 20 -3 3 -8 0 -12 -6z"/>
<path d="M11660 4500 c-12 -7 -10 -9 7 -7 12 0 19 5 17 9 -6 10 -6 10 -24 -2z"/>
<path d="M11410 4380 c0 -5 5 -10 11 -10 5 0 7 5 4 10 -3 6 -8 10 -11 10 -2 0
-4 -4 -4 -10z"/>
<path d="M11290 4320 c0 -5 5 -10 11 -10 5 0 7 5 4 10 -3 6 -8 10 -11 10 -2 0
-4 -4 -4 -10z"/>
<path d="M4096 4272 c-3 -5 1 -9 9 -9 8 0 12 4 9 9 -3 4 -7 8 -9 8 -2 0 -6 -4
-9 -8z"/>
<path d="M4465 4029 c-4 -6 -4 -13 -1 -16 3 -4 6 -1 6 6 0 7 5 9 12 5 7 -4 8
-3 4 4 -9 15 -13 15 -21 1z"/>
<path d="M4776 3822 c-3 -4 4 -9 15 -9 23 -2 25 3 4 10 -8 4 -16 3 -19 -1z"/>
<path d="M10280 3710 c-12 -7 -12 -11 -2 -20 6 -5 10 -7 7 -4 -3 4 0 13 6 21
13 15 10 16 -11 3z"/>
<path d="M5080 3606 c0 -2 7 -9 15 -16 13 -11 14 -10 9 4 -5 14 -24 23 -24 12z"/>
<path d="M10085 3600 c-3 -5 -1 -10 4 -10 6 0 11 5 11 10 0 6 -2 10 -4 10 -3
0 -8 -4 -11 -10z"/>
<path d="M5220 3531 c0 -6 4 -13 10 -16 6 -3 7 1 4 9 -7 18 -14 21 -14 7z"/>
<path d="M5275 3490 c-16 -7 -17 -9 -3 -9 9 -1 20 4 23 9 7 11 7 11 -20 0z"/>
<path d="M9635 3349 c-4 -6 -4 -13 -1 -16 3 -4 6 -1 6 6 0 7 5 9 12 5 7 -4 8
-3 4 4 -9 15 -13 15 -21 1z"/>
<path d="M9536 3291 c-4 -5 -2 -12 3 -15 5 -4 12 -2 15 3 4 5 2 12 -3 15 -5 4
-12 2 -15 -3z"/>
<path d="M5690 3220 c0 -5 5 -10 11 -10 5 0 7 5 4 10 -3 6 -8 10 -11 10 -2 0
-4 -4 -4 -10z"/>
<path d="M5836 3112 c-3 -5 1 -9 9 -9 8 0 12 4 9 9 -3 4 -7 8 -9 8 -2 0 -6 -4
-9 -8z"/>
<path d="M9235 3110 c-4 -6 -12 -7 -18 -4 -7 4 -8 3 -4 -1 13 -15 34 -14 34 1
0 17 -4 18 -12 4z"/>
<path d="M6000 2991 c0 -7 -5 -9 -12 -5 -7 5 -8 3 -3 -5 5 -9 10 -10 18 -2 6
6 8 14 4 18 -4 3 -7 1 -7 -6z"/>
<path d="M6216 2862 c-3 -4 4 -9 15 -9 23 -2 25 3 4 10 -8 4 -16 3 -19 -1z"/>
<path d="M8795 2830 c-3 -5 -1 -10 4 -10 6 0 11 5 11 10 0 6 -2 10 -4 10 -3 0
-8 -4 -11 -10z"/>
<path d="M6353 2772 c2 -12 6 -24 10 -28 3 -4 4 4 2 16 -6 30 -16 40 -12 12z"/>
<path d="M6442 2708 c16 -16 34 -28 41 -28 6 0 3 6 -8 12 -11 6 -29 18 -40 27
-12 9 -8 4 7 -11z"/>
<path d="M6476 2658 c3 -5 10 -6 15 -3 13 9 11 12 -6 12 -8 0 -12 -4 -9 -9z"/>
<path d="M6539 2643 c-13 -17 -13 -17 5 -3 18 14 19 13 12 -5 -6 -16 -5 -18 5
-7 9 8 10 15 3 22 -8 8 -15 5 -25 -7z"/>
<path d="M8520 2639 c0 -5 5 -7 10 -4 6 3 10 8 10 11 0 2 -4 4 -10 4 -5 0 -10
-5 -10 -11z"/>
<path d="M8186 2468 c3 -5 10 -6 15 -3 13 9 11 12 -6 12 -8 0 -12 -4 -9 -9z"/>
<path d="M7021 2364 c0 -11 3 -14 6 -6 3 7 2 16 -1 19 -3 4 -6 -2 -5 -13z"/>
<path d="M7070 2350 c0 -5 5 -10 11 -10 5 0 7 5 4 10 -3 6 -8 10 -11 10 -2 0
-4 -4 -4 -10z"/>
<path d="M7904 2309 c-3 -6 -3 -13 0 -16 3 -4 6 -1 6 5 0 6 7 9 15 6 8 -4 15
-4 15 -1 0 11 -30 16 -36 6z"/>
<path d="M7716 2204 c-22 -22 -20 -31 2 -11 15 13 21 14 32 4 12 -10 12 -9 1
6 -16 21 -16 21 -35 1z"/>
<path d="M7490 2158 c0 -11 12 -10 30 2 12 7 10 9 -8 7 -12 0 -22 -5 -22 -9z"/>
</g>
</svg>
